<svg xmlns="http://www.w3.org/2000/svg" width="586" height="280" viewBox="0 0 585.676 279.599"><path d="M228.512 153.936c-59.306-38.105-87.87-81.83-61.105-152.745C101.147 2.65 49.25 39.2 0 102.432c50.928-26.5 76.798-2.736 87.332 7 10.54 9.733 16.08 29.5 10.497 45.894 9.207-7.38 18.566-14.86 28.773-18.8 10.198-3.94 21.55-3.992 30.287 3.012 8.738 7.018 13.925 22.176 10.213 35.545 9.782-11.452 23.9-17.475 35.697-12.4 10.388 4.48 16.23 11.03 19.433 19.16m134.933-29.088C416.47 114.64 445.034 70.916 418.27 0c66.26 1.46 118.157 38.008 167.407 101.24-50.928-26.5-76.798-2.736-87.332 7-10.54 9.733-16.078 29.5-10.496 45.893-9.207-7.38-18.566-14.86-28.773-18.8-10.198-3.94-21.55-3.992-30.287 3-8.738 7.02-13.925 22.177-10.213 35.546-9.783-11.453-23.9-17.476-35.697-12.4-10.4 4.482-16.23 11.03-19.433 19.16m-95.06-53.01s-43.955-36.473 0-69.806c0 0-59.846 1.613-50.32 69.806 0 0 20.587 23.14 50.32 0zm53.3-.538s43.956-36.473 0-69.807c0 0 59.847 1.613 50.32 69.807.001 0-20.586 23.14-50.32 0z" fill="#242424"/><path d="M217.04 113.43l76.844 20 79.657-20v138.29h-156.5z" fill="#706c6d"/><radialGradient id="A" cx="399.56" cy="571.856" r="100.14" gradientTransform="matrix(0.7157,0,0,0.7682,38.3242,108.064)" gradientUnits="userSpaceOnUse"><stop offset="0" stop-color="#fff"/><stop offset=".02" stop-color="#f5f5f5"/><stop offset=".135" stop-color="#bcbcbc"/><stop offset=".253" stop-color="#8a8a8a"/><stop offset=".373" stop-color="#5f5f5f"/><stop offset=".493" stop-color="#3d3d3d"/><stop offset=".615" stop-color="#222"/><stop offset=".739" stop-color="#0f0f0f"/><stop offset=".865" stop-color="#040404"/><stop offset="1"/></radialGradient><path transform="translate(-29.001 -364.776)" d="M246.042 478.206l76.844 20 79.657-20v138.29h-156.5z" opacity=".3" fill="url(#A)"/><path d="M324.084 251.72h22.696L336.1 279.6z" fill="#fcfcfa"/><path d="M318.6 210.94l36.62-17.408m-81.76 17.408l-36.62-15.3" stroke-miterlimit="10" fill="none" stroke="#262425" stroke-width="6.794"/><path d="M266.498 251.72h-22.696l10.68 27.878z" fill="#fcfcfa"/><path d="M242.322 207.548a15.46 15.46 0 0 0-2.645 8.672c0 8.578 6.954 15.53 15.533 15.53 7.948 0 14.492-5.973 15.4-13.675zm105.938 0a15.46 15.46 0 0 1 2.645 8.672c0 8.578-6.954 15.53-15.532 15.53-7.95 0-14.492-5.973-15.412-13.675z" fill="#242424"/><g fill="#fcfcfa"><circle cx="246.12" cy="216.244" r="3.406"/><circle cx="329.28" cy="219.65" r="3.406"/></g></svg>