<svg xmlns="http://www.w3.org/2000/svg" width="462" height="462" viewBox="0 0 461.228 461.654"><defs/><g fill="#e59393"><path d="M446.222 421.47c0 13.807-11.193 25-25 25h-381c-13.807 0-25-11.193-25-25v-381c0-13.807 11.193-25 25-25h381c13.807 0 25 11.193 25 25z"/><path d="M431.222 421.47c-.12 4.407.767-2.86-.04 1.375-.09.466-1.46 4.512-.136 1.38-.504 1.2-1.188 2.292-1.867 3.386 1.67-2.688-.426.448-.885.932-.408.43-3.602 2.74-.932.885-1.062.737-2.228 1.304-3.386 1.866 2.994-1.454-.845.005-1.38.137-3.976.98 2.817.04-1.38.04H40.22c-1.806-.12-1.83-.052-.067.21a24.92 24.92 0 0 1-2.591-.566c-3.985-.982 2.388 1.387-1.26-.385-.424-.206-3.91-2.524-1.254-.472-1.014-.784-1.9-1.717-2.78-2.643-2.78-2.926 1.45 2.338-.683-1.097-.32-.515-1.743-4.215-.626-1.133-.45-1.245-.7-2.55-.947-3.847.488 2.558.208.87.208-.154L30.256 39.1c-.088 3.264.147-.586.32-1.287.57-1.642.5-1.674-.18-.096.356-.785.752-1.55 1.188-2.293 1.952-3.538-1.938 1.958.683-1.096.834-.973 1.81-1.81 2.78-2.643-2.494 2.14.778-.208 1.254-.47 3.564-1.966-2.67.81 1.26-.385.608-.185 4.64-.592 1.287-.32.46-.038.923-.037 1.386-.037H420.64c3.188 0 4.93.34 7.652 2.93.428.408 2.74 3.602.885.932.737 1.06 1.304 2.227 1.867 3.385-1.455-2.994.004.845.136 1.38 1 4.058-.074-2.893.04 1.375l.001 380.998c0 19.346 30 19.346 30 0V42.118c0-17.686-10.038-33.288-26.884-39.393C422.593-1.53 407.068.47 394.823.47H60.496c-18.05 0-36.993-1.864-50.272 13.615-12.04 14.033-10 31.587-10 48.622v334.485c0 14.753-1.9 31.104 5.46 44.467 7.376 13.372 22.125 19.812 36.83 19.812H392.63c12.157 0 24.564.774 36.637-.863 18.763-2.545 31.477-21.317 31.957-39.137.22-8.177-7-15-15-15-8.346 0-14.782 6.828-15.002 15z"/></g></svg>