<svg xmlns="http://www.w3.org/2000/svg" width="462" height="462" viewBox="0 0 461.228 461.655"><path d="M446.222 421.47c0 13.807-11.192 25-25 25h-381c-13.807 0-25-11.193-25-25v-381c0-13.807 11.193-25 25-25h381c13.808 0 25 11.193 25 25z" fill="#ffe5e1"/><path d="M431.222 421.47c-.12 4.408.767-2.86-.04 1.375-.09.466-1.46 4.512-.136 1.38-.504 1.2-1.188 2.292-1.867 3.386 1.67-2.688-.426.447-.885.932-.407.43-3.602 2.74-.932.885-1.06.737-2.227 1.304-3.385 1.866 2.994-1.454-.845.005-1.38.137-3.977.98 2.816.04-1.38.04H40.22c-1.806-.12-1.83-.052-.067.21a25.18 25.18 0 0 1-2.591-.566c-3.985-.982 2.388 1.387-1.26-.385-.424-.207-3.91-2.524-1.254-.472-1.014-.784-1.9-1.717-2.78-2.643-2.78-2.926 1.45 2.338-.682-1.097-.32-.515-1.743-4.215-.626-1.133-.45-1.245-.7-2.55-.947-3.847.488 2.558.208.87.208-.154L30.257 39.1c-.088 3.264.147-.586.32-1.287.57-1.642.5-1.674-.18-.096.356-.785.752-1.55 1.188-2.293 1.952-3.538-1.938 1.958.682-1.096.834-.973 1.81-1.81 2.78-2.643-2.495 2.14.777-.208 1.254-.47 3.564-1.966-2.67.81 1.26-.385.607-.185 4.64-.592 1.287-.32.46-.038.923-.037 1.385-.037H420.64c3.188 0 4.93.34 7.652 2.93.43.408 2.74 3.602.885.932.737 1.06 1.305 2.227 1.867 3.385-1.455-2.994.004.845.136 1.38 1 4.058-.074-2.893.04 1.375l.001 381c0 19.346 30 19.346 30 0V42.118c0-17.686-10.038-33.288-26.883-39.393C422.593-1.53 407.07.47 394.823.47H60.496c-18.05 0-36.993-1.864-50.273 13.615-12.04 14.034-10 31.587-10 48.622v334.486c0 14.753-1.9 31.104 5.46 44.467 7.376 13.372 22.125 19.812 36.83 19.812H392.63c12.156 0 24.564.774 36.636-.863 18.764-2.544 31.477-21.317 31.957-39.137.22-8.177-7-15-15-15-8.346-.001-14.782 6.827-15.002 15z" fill="#e23b33"/><path d="M98.35 46.152L83.8 82.5m246.307-22.727l33.92 36.35m-321.693 107.6l24.235 30.314m-12.12 132.05l19.4 33.918m138.12-24.23l24.224 24.24m169.633-222.932l-24.84 41.802m-33.92 169.02l33.92-31.5" stroke-miterlimit="10" fill="none" stroke="#894737" stroke-width="29"/><circle cx="224.081" cy="218.885" r="109" fill="#ff393d"/><path d="M238.545 207.278c.305-1.92.84-3.812 1.392-5.67.618-2.082 1.364-4.124 2.17-6.14-1.96 4.914-.088.3.427-.793l2.035-3.923c1.584-2.882 3.412-5.622 5.368-8.263-2.514 3.395 1.164-1.265 1.802-1.978l4.04-4.087 2.57-2.332c1.713-1.305 3.52-2.48 5.346-3.617 1.934-1.207 3.957-2.26 5.995-3.276L272.28 166c-2.722 1.228 1.827-.624 1.93-.66 7.682-2.777 12.774-10.1 10.477-18.452-2.04-7.416-10.756-13.26-18.45-10.477-19.6 7.086-35.866 19.616-46.64 37.578-4.53 7.55-8.58 16.523-9.977 25.313-1.28 8.068 1.945 16.105 10.477 18.452 7.2 1.985 17.167-2.388 18.45-10.475z" fill="#47b683"/></svg>