<svg xmlns="http://www.w3.org/2000/svg" width="350" height="350"><path d="M0 0h350v350H0z" fill="#45e07a"/><path d="M46.666 46.666h256.666v256.666H46.666z" fill="#9cf1b8"/><path d="M0 0h89.437v89.442H0zm105 108.9h140v140H105z" fill="#45e07a"/><path d="M140 147.776h70v70h-70zM26.25 26.25h40.833v40.833H26.25z" fill="#9cf1b8"/><path d="M258.613 1.947h89.448V91.4h-89.448z" fill="#45e07a"/><path d="M284.863 28.197h40.832V69.03h-40.832z" fill="#9cf1b8"/><path d="M260.562 260.557H350V350h-89.438z" fill="#45e07a"/><path d="M286.812 286.807h40.834v40.833h-40.834z" fill="#9cf1b8"/><path d="M0 258.614h89.437v89.44H0z" fill="#45e07a"/><path d="M26.25 284.864h40.833v40.833H26.25z" fill="#9cf1b8"/></svg>