<svg xmlns="http://www.w3.org/2000/svg" width="404" height="374" viewBox="0 0 403.15 373.312"><defs/><path d="M347.184 56.685c-29.51 0-53.432 23.923-53.432 53.433 0 .9.023 1.795.067 2.684a54.76 54.76 0 0 0 .175 2.342c.01.092.013.186.02.278.168 1.704.42 3.38.745 5.034.007.035.012.07.02.106a131.63 131.63 0 0 0-30.107-22.132l-.313-.17-2.334-1.207-.56-.285-2.26-1.1h11.723V75.56H255.28v-.3h.376v-15.57h-.376V2.5H147.728v57.183h-1.64v15.57h1.64v.3h-16.79V95.67h11.95c-11.17 5.317-21.42 12.14-30.55 20.213-.008.007-.015.014-.023.02l-2.328 2.11-2.24 2.126c.245-.97.457-1.955.647-2.946l.12-.67c.14-.773.26-1.552.366-2.337l.113-.9c.087-.75.156-1.503.212-2.26l.066-.875c.06-1.03.097-2.068.097-3.114 0-29.5-23.922-53.433-53.432-53.433S2.502 77.535 2.502 107.045s23.922 53.433 53.433 53.433c.816 0 1.627-.025 2.435-.062l.632-.032c.765-.043 1.527-.098 2.283-.173l.298-.032a53.05 53.05 0 0 0 2.091-.266l.8-.123a54.12 54.12 0 0 0 1.771-.316l1.063-.222 1.44-.332 1.08-.278 1.07-.303c.675-.197 1.343-.407 2.006-.63l.708-.24 1.366-.5.362-.143c.954-.372 1.895-.77 2.82-1.195l.124-.056a53.34 53.34 0 0 0 4.54-2.365c-.016.03-.03.06-.046.088a137.92 137.92 0 0 0-1.804 3.481l-.278.558-1.65 3.44-.12.256c-1.16 2.522-2.246 5.09-3.26 7.694l-.25.65-1.23 3.33-.223.624a143.2 143.2 0 0 0-2.523 7.94l-.21.75-.874 3.267-.237.936-.94 4.02-.834 4.12-.143.8-.56 3.282-.182 1.18-.445 3.203-.126.966-.448 4.154-.056.682-.268 3.487-.077 1.313-.14 3.047-.044 1.263-.065 4.232c0 19.225-15.962 52.67-8.822 65.885a51.12 51.12 0 0 0 1.517 2.602l.332.532c.52.817 1.057 1.617 1.616 2.395l.292.394c.525.717 1.067 1.417 1.626 2.1l.268.332c.612.736 1.246 1.45 1.896 2.147l.416.44a52.55 52.55 0 0 0 2.06 2.056c.024.023.05.045.074.068.696.65 1.415 1.28 2.146 1.896l.425.357c.742.613 1.5 1.2 2.278 1.788.126.095.255.186.383.278a60.68 60.68 0 0 0 2.298 1.605l.23.156a64.6 64.6 0 0 0 2.557 1.593l.473.278c.883.515 1.78 1.017 2.696 1.5.027.015.056.028.083.042a75.73 75.73 0 0 0 2.781 1.382l.394.187c.954.445 1.923.876 2.908 1.3l.366.15a93.04 93.04 0 0 0 3.065 1.214 98.79 98.79 0 0 0 3.21 1.134l.405.135a115.14 115.14 0 0 0 6.768 2.008l.205.055 3.525.874.218.05c2.416.56 4.883 1.066 7.397 1.522l.164.03.782.142v13.798h2.116c-2.1 3.74-3.32 8.286-3.32 13.192 0 12.755 8.282 23.096 18.5 23.096h145.133c10.216 0 18.498-10.34 18.498-23.096 0-5.098-1.326-9.807-3.566-13.627v-13.42l.466-.086.17-.03a153.84 153.84 0 0 0 7.345-1.522l.218-.05 3.5-.873.207-.057a113.36 113.36 0 0 0 6.715-2.006l.405-.137c1.072-.362 2.134-.737 3.178-1.13a91.18 91.18 0 0 0 3.047-1.216l.364-.15c.977-.415 1.938-.845 2.884-1.3l.39-.188c.934-.445 1.854-.902 2.756-1.38.028-.015.058-.028.086-.044a68.41 68.41 0 0 0 2.674-1.499l.466-.276c.86-.516 1.71-1.045 2.536-1.594l.23-.155c.775-.52 1.534-1.057 2.28-1.607l.377-.276c.77-.58 1.522-1.176 2.258-1.79l.42-.356a54.15 54.15 0 0 0 2.128-1.899l.07-.065a51.42 51.42 0 0 0 2.04-2.058l.412-.44c.644-.698 1.27-1.412 1.876-2.147.1-.108.176-.222.265-.33a48.82 48.82 0 0 0 1.609-2.102l.288-.392a51.41 51.41 0 0 0 1.599-2.396l.327-.532c.52-.85 1.023-1.7 1.5-2.602 7.054-13.215-8.964-46.66-8.964-65.885l-.06-4.055-.044-1.252-.122-2.82-.082-1.388-.2-2.778-.104-1.25-.346-3.407-.058-.54-.53-4.053-.085-.548-.548-3.413-.167-.93-.593-3.11-.173-.853-.78-3.533-.068-.3c-.636-2.688-1.346-5.342-2.127-7.965l-.06-.194-1.153-3.67-.112-.338c-2.16-6.515-4.77-12.807-7.794-18.835.453.254.905.497 1.36.735l.352.18a53.58 53.58 0 0 0 2.389 1.153l.5.226 1.3.548c.23.094.46.18.688.27.658.258 1.32.505 1.992.738l.963.326 1.086.345c.604.183 1.2.356 1.822.518.296.078.594.148.892.22l1.443.333.79.17c.696.14 1.398.264 2.105.376l.694.103a56.46 56.46 0 0 0 1.94.247l.418.048c.774.078 1.555.134 2.34.178l.584.03c.81.037 1.62.062 2.438.062 29.512 0 53.434-23.923 53.434-53.432s-23.92-53.43-53.432-53.43z"/><path d="M347.184 54.185c-35.457.456-60.86 32.518-54.815 67.042l4.18-2.432c-10.676-10.34-22.758-18.726-36.08-25.284l-1.262 4.66h11.723c1.363 0 2.5-1.137 2.5-2.5V75.562c0-1.363-1.137-2.5-2.5-2.5h-15.646l2.5 2.5v-.3l-2.5 2.5h.376c1.363 0 2.5-1.137 2.5-2.5v-15.57c0-1.363-1.137-2.5-2.5-2.5h-.376l2.5 2.5V2.5c0-1.363-1.138-2.5-2.5-2.5H147.728c-1.363 0-2.5 1.137-2.5 2.5v57.183l2.5-2.5h-1.64c-1.363 0-2.5 1.137-2.5 2.5v15.57c0 1.363 1.137 2.5 2.5 2.5h1.64l-2.5-2.5v.3l2.5-2.5h-16.79c-1.363 0-2.5 1.137-2.5 2.5V95.67c0 1.363 1.137 2.5 2.5 2.5h11.95l-1.262-4.66c-13.18 6.383-25.056 14.768-35.646 24.86l4.178 2.432c4.886-20.81-1.794-42.362-18.027-56.39-16.505-14.265-40.082-16.853-59.764-8.092C12.574 65.13.278 85.71.004 107.045-.274 128.66 13.06 148.597 32.366 157.77c16.535 7.857 35.94 6.474 51.72-2.4l-3.42-3.42c-8.946 17.13-14.515 35.397-16.59 54.615-.993 9.194-.45 18.354-2.25 27.46-1.93 9.775-4.92 19.314-7.083 29.038-1.606 7.218-3.04 15.002-1.377 22.334 1.46 6.45 7.19 12.93 11.93 17.297 12.88 11.863 29.96 17.25 46.864 20.312l-1.835-2.41v13.798c0 1.362 1.137 2.5 2.5 2.5h2.116l-2.16-3.762c-7.688 14.905-2.06 40.05 18.06 40.05h118.273c9.1 0 18.26.318 27.354-.05 12.817-.518 19.492-14.358 19.782-25.547.1-3.452-.66-6.938-1.735-10.193-.714-2.158-1.83-3.175-1.83-5.354v-11.5l-1.835 2.41c15.743-2.905 31.663-7.827 44.07-18.358 5.23-4.438 10.484-10.376 13.113-16.793 2.688-6.563 1.4-14.2.154-20.933-1.646-8.905-4.305-17.61-6.463-26.396-2.2-8.962-2.71-17.462-3.146-26.62-.97-20.292-6.346-40.175-15.322-58.367l-3.42 3.42c30.063 17.537 68.863 1.198 80.298-30.73C406.18 111.3 402.866 92 392.62 77.51c-10.395-14.7-27.582-23.096-45.437-23.326-3.226-.042-3.222 4.958 0 5 34.775.447 59.018 34.674 48.128 67.66-9.663 29.274-46.302 43.288-72.953 27.74-2.276-1.328-4.493 1.246-3.42 3.42 8.42 17.066 13.27 35.485 14.557 54.456.525 7.75.434 15.23 1.954 22.894 1.68 8.463 4.174 16.753 6.223 25.13 1.768 7.227 3.834 15.242 2.55 22.713-1.12 6.512-7.078 12.632-11.76 16.922-11.633 10.66-27.805 15.216-42.94 18.008-1.08.2-1.835 1.372-1.835 2.41v12.676c0 2.056 1.258 3.615 2 5.506 4.23 10.636-.492 29.46-14.45 29.46H133.904c-2.25 0-4.484.107-6.7-.344-13.75-2.8-15.288-22.13-10.103-32.183.855-1.66-.188-3.762-2.16-3.762h-2.116l2.5 2.5v-13.798c0-1.036-.754-2.215-1.835-2.41-16.1-2.914-32.306-7.822-44.658-19.024-4.742-4.3-10.17-10.583-11.035-17.135-1.055-7.986 1.416-16.51 3.315-24.187 2.056-8.312 4.446-16.543 6.014-24.968 1.53-8.226 1.13-16.604 1.814-24.916 1.54-18.704 7.39-36.905 16.045-53.48 1.15-2.2-1.175-4.683-3.42-3.42-19.485 10.957-43.6 8.467-60.235-6.64-17.985-16.322-21.047-43.692-8.694-64.2 12.54-20.818 38.81-28.9 61.283-20.85 22.428 8.033 35.758 32.107 32.382 55.328-.234 1.61-.59 3.197-.963 4.78-.572 2.438 2.336 4.188 4.178 2.432 10.294-9.8 21.83-17.875 34.634-24.077 2.31-1.118 1.11-4.66-1.262-4.66h-11.95l2.5 2.5V75.56l-2.5 2.5h16.79c1.363 0 2.5-1.137 2.5-2.5v-.3c0-1.363-1.137-2.5-2.5-2.5h-1.64l2.5 2.5v-15.57l-2.5 2.5h1.64c1.363 0 2.5-1.137 2.5-2.5V2.5l-2.5 2.5h107.554l-2.5-2.5v57.183c0 1.363 1.138 2.5 2.5 2.5h.376l-2.5-2.5v15.57l2.5-2.5h-.376c-1.362 0-2.5 1.137-2.5 2.5v.3c0 1.363 1.138 2.5 2.5 2.5h15.646l-2.5-2.5V95.67l2.5-2.5h-11.723c-2.38 0-3.56 3.528-1.262 4.66 12.953 6.375 24.684 14.443 35.07 24.5 1.9 1.85 4.595-.052 4.18-2.432-5.5-31.348 17.997-60.3 49.993-60.712 3.22-.04 3.224-5.04-.002-5z"/></svg>