<svg xmlns="http://www.w3.org/2000/svg" xmlns:xlink="http://www.w3.org/1999/xlink" width="405" height="372" viewBox="0 0 404.347 371.321"><defs><path id="A" d="M190.39 162.416c0 8.57-4.962 15.52-11.083 15.52h-58.3c-6.123 0-11.085-6.95-11.085-15.52s4.962-15.522 11.085-15.522h58.3c6.12 0 11.083 6.95 11.083 15.522z"/><path id="B" d="M213.9 162.416c0 8.57 4.962 15.52 11.084 15.52h58.3c6.122 0 11.084-6.95 11.084-15.52s-4.962-15.522-11.084-15.522h-58.3c-6.122 0-11.084 6.95-11.084 15.522z"/></defs><g fill="#b5691a"><path d="M336.853 219.478c0 19.225 16.018 52.67 8.964 65.885-21.16 39.646-85.674 36.63-143.76 36.63S78.935 325 57.518 285.363c-7.14-13.215 8.822-46.66 8.822-65.885 0-76.898 57.805-139.236 135.257-139.236s135.256 62.338 135.256 139.236z"/><circle cx="56.488" cy="104.546" r="53.432"/><circle cx="347.736" cy="107.618" r="53.433"/></g><circle cx="151.121" cy="195.681" r="40.192" fill="#f79e3f"/><circle cx="153.963" cy="193.117" r="35.139" fill="#4d2d1f"/><path d="M148.28 0h107.554v88.74H148.28z"/><circle cx="153.393" cy="192.36" r="27.12" fill="#fff" stroke="#fff" stroke-width="1.245"/><path d="M185.99 135.975c.162 5.758-4.943 10.57-11.4 10.75l-50.75 1.395c-6.455.18-11.815-4.347-11.973-10.104s4.936-11.533 11.39-11.7l50.76 4.544c6.454-.178 11.814-.633 11.97 5.126z" fill="#070d19"/><circle cx="152.429" cy="192.664" r="14.726" fill="#3a559a"/><circle cx="152.739" cy="192.589" r="9.439"/><circle cx="148.279" cy="250.603" r="3.725" fill="#584439"/><use xlink:href="#A" fill="#b5691a"/><circle cx="147.95" cy="189.011" r="3.17" fill="#fff"/><circle cx="253.179" cy="195.681" r="40.192" fill="#f79e3f"/><circle cx="250.335" cy="193.117" r="35.139" fill="#4d2d1f"/><circle cx="250.906" cy="192.36" r="27.12" fill="#fff" stroke="#fff" stroke-width="1.245"/><path d="M218.588 136.406c-.194 5.76 4.854 10.542 11.28 10.682l50.51 1.1c6.426.14 11.79-4.415 11.985-10.175s-4.864-11.504-11.287-11.645l-50.502 4.84c-6.422-.14-11.788-.563-11.984 5.198z" fill="#070d19"/><circle cx="251.87" cy="192.664" r="14.725" fill="#3a559a"/><circle cx="251.559" cy="192.589" r="9.438"/><use xlink:href="#B" fill="#b5691a"/><circle cx="256.349" cy="189.011" r="3.171" fill="#fff"/><g fill="#943810"><use xlink:href="#A" opacity=".3"/><use xlink:href="#B" opacity=".3"/></g><path d="M294.303 345.087c0 12.755-8.282 23.096-18.498 23.096H130.672c-10.217 0-18.5-10.34-18.5-23.096s8.282-23.095 18.5-23.095h145.133c10.215 0 18.498 10.34 18.498 23.095z" fill="#b5691a"/><path d="M347.735 51.074c-35.712.46-61.743 32.9-55.404 67.816l5.2-3.027c-52.51-50.924-138.698-51.103-191.434-.425l5.2 3.027c5.345-22.87-3.088-45.886-21.894-59.884-17.77-13.225-42.493-13.657-61.455-2.86C8.875 66.582-1.722 88.472.23 110.094s16.792 39.8 36.788 47.542c15.626 6.042 33.514 3.89 47.93-4.237l-4.257-4.257c-6.03 11.37-10.557 23.376-13.54 35.895-3.077 12.913-2.997 25.67-4.152 38.767-1.702 19.286-13.336 38.775-9.87 58.388 1.468 8.304 9.27 16.124 15.503 21.226 7.737 6.334 16.974 10.475 26.433 13.51 23.116 7.42 48.376 7.92 72.43 8.176v-6.223H131.85c-21.343 0-27.862 26.924-18.094 42.536 6.07 9.7 15.468 9.877 25.38 9.877h126.103c9.1 0 17.387.782 24.588-6.242 13.804-13.464 8.08-46.17-14.153-46.17h-39.11v6.223c23.644-.253 47.926-1.01 70.753-7.773 16.71-4.95 36.457-15.792 42.442-33.433 2.61-7.697.204-17.173-1.508-24.787-2.365-10.52-5.68-20.814-7.53-31.45-.99-5.68-.715-11.442-1.02-17.178-.36-6.73-1.28-13.435-2.516-20.056-2.444-13.12-6.944-25.805-12.85-37.752l-4.257 4.257c33.18 17.937 74.8-.607 82.974-37.552 7.733-34.96-20.202-67.856-55.315-68.307-4.015-.052-4 6.17 0 6.223 31.55.406 55.365 29.343 49.313 60.428-6.47 33.236-44.607 49.632-73.832 33.833-2.844-1.538-5.628 1.484-4.257 4.257 5.44 11.003 9.35 22.556 11.885 34.56 2.512 11.9 1.877 23.8 3.4 35.73 1.157 9.064 3.77 17.9 6.055 26.726 2.23 8.614 4.832 17.712 4.046 26.695-.67 7.672-8.345 14.895-13.903 19.5-7.497 6.197-16.867 9.97-26.094 12.702-21.8 6.46-45.225 6.92-67.785 7.162-4.01.043-4.015 6.223 0 6.223h36.78c9.38 0 15.183 5.832 17.35 14.906 2.358 9.884-3.028 25.062-14.97 25.062H132.638c-19.9 0-23.947-32.592-5.87-39.317 4.764-1.77 11.56-.65 16.486-.65h24.24c4.015 0 4.01-6.18 0-6.223-22.35-.24-45.102-.94-66.803-6.785-9.407-2.533-18.412-6.376-26.344-12.074-6.337-4.553-14.317-12.38-15.39-20.495-1.163-8.8 1.822-18.264 3.97-26.695 2.352-9.236 4.965-18.412 6.17-27.888.687-5.4.385-10.912.743-16.342.448-6.804 1.507-13.543 2.927-20.207 2.685-12.605 7.265-24.74 13.296-36.113 1.452-2.736-1.476-5.825-4.257-4.257-21.944 12.37-48.9 7.07-64.813-12.26-14.65-17.808-13.998-44.556 0-62.438C31.11 55.294 56.43 49.4 77.225 58.666c22.238 9.9 33.53 34.782 28.07 58.146-.707 3.024 2.91 5.228 5.2 3.027 50.285-48.323 132.57-48.125 182.633.425 2.366 2.294 5.74-.06 5.2-3.027-5.62-30.965 17.98-59.535 49.404-59.94 4.01-.053 4.016-6.276.001-6.224z" fill="#380c03"/><path d="M113.376 289.81h177.36v42.083h-177.36z"/><g fill="#fff" stroke="#fff" stroke-miterlimit="10"><path d="M163.32 299.337v13.433c0 1.118 1.033 2.026 2.306 2.026h18.087c1.274 0 2.307-.908 2.307-2.026v-13.433zm-30.115.3v13.434c0 1.12 1.033 2.025 2.308 2.025H153.6c1.274 0 2.307-.905 2.307-2.025v-13.434zm115.572-.234v13.433c0 1.12 1.033 2.026 2.307 2.026h18.087c1.274 0 2.308-.907 2.308-2.026v-13.433zm-30.117.3v13.434c0 1.12 1.033 2.026 2.307 2.026h18.088c1.273 0 2.307-.907 2.307-2.026v-13.434z" stroke-width=".087"/><path d="M241.362 332.296v-10.13c0-.843-1.033-1.526-2.307-1.526h-18.088c-1.273 0-2.307.684-2.307 1.526v10.13zm30.116-.23v-10.13c0-.845-1.033-1.53-2.308-1.53h-18.087c-1.273 0-2.307.685-2.307 1.53v10.13zm-115.572.18v-10.13c0-.844-1.033-1.526-2.307-1.526h-18.086c-1.274 0-2.308.683-2.308 1.526v10.13zm30.116-.227v-10.13c0-.845-1.033-1.528-2.307-1.528h-18.087c-1.273 0-2.306.684-2.306 1.528v10.13z" stroke-width=".075"/></g><circle cx="52.652" cy="106.301" r="28.211" fill="#f79e3f"/><path d="M77.75 106.3c-.332 13.934-11.167 24.768-25.1 25.1s-24.78-11.666-25.1-25.1c-.332-13.933 11.666-24.78 25.1-25.1 13.933-.33 24.78 11.668 25.1 25.1.095 4.006 6.318 4.016 6.223 0-.413-17.354-13.97-30.91-31.323-31.323S21.727 89.568 21.33 106.3c-.413 17.35 14.6 30.924 31.322 31.322 17.35.413 30.925-14.59 31.323-31.322.096-4.015-6.127-4.006-6.223 0z" fill="#d87d2a"/><path d="M131.488 73.06h140V93.17h-140z"/><path d="M239.393 9.827h9.384V73.06h-9.384z" fill="#3d3d3c"/><circle cx="352.156" cy="106.301" r="28.211" fill="#f79e3f"/><path d="M377.256 106.3c-.332 13.934-11.167 24.768-25.1 25.1s-24.778-11.667-25.1-25.1c-.33-13.932 11.665-24.78 25.1-25.1 13.934-.33 24.78 11.667 25.1 25.1.095 4.006 6.318 4.016 6.223 0-.413-17.354-13.97-30.91-31.323-31.323s-30.923 14.59-31.32 31.323c-.413 17.35 14.59 30.924 31.32 31.322 17.35.413 30.925-14.59 31.323-31.322.095-4.015-6.128-4.006-6.223 0z" fill="#d87d2a"/><path d="M290.736 289.81c0 10.533-4.22 10.364-20.174 10.364l-53.146.345-15.82-7.813-14.935 7.77-53.114-.303c-15.954 0-20.173.17-20.173-10.364v-42.73c0-10.536 12.93-19.075 28.885-19.075h119.59c15.953 0 28.886 8.54 28.886 19.075v42.73z" fill="#dc9e6b"/><path d="M203.153 292.708l-.114-33.402c-.007-2.006-3.118-2.007-3.11 0l.114 33.402c.006 2.006 3.118 2.007 3.11 0z" fill="#584439"/><path d="M113.376 247.08c0-10.536 12.93-19.075 28.885-19.075h119.59c15.953 0 28.886 8.54 28.886 19.075" fill="#d1864e" opacity=".6"/><path d="M228.522 241.29a13.04 13.04 0 0 1-13.035 13.037l-14.004 4.978-13.776-4.978a13.04 13.04 0 0 1-13.036-13.037 13.04 13.04 0 0 1 13.036-13.035h27.78a13.04 13.04 0 0 1 13.035 13.035z"/><g fill="#584439"><circle cx="122.549" cy="250.603" r="3.725"/><circle cx="148.279" cy="250.603" r="3.725"/><circle cx="135.213" cy="262.846" r="3.725"/><circle cx="279.46" cy="250.601" r="3.725"/><circle cx="253.729" cy="250.601" r="3.725"/><circle cx="266.795" cy="262.846" r="3.725"/></g><path d="M146.64 57.183h109.57v15.57H146.64z"/></svg>