<svg xmlns="http://www.w3.org/2000/svg" width="402" height="470" viewBox="0 0 402 469.023"><path d="M401.447 220.515v-61.55C401.447 71.172 311.578 0 200.724 0S0 71.173 0 158.964v91.104c0 4.628.265 9.207.754 13.734v205.22c5.65-5.285 12.183-9.906 16.784-15.986 15.278-20.18 29.91-23.416 45.946-.803 9.937 14.014 21.395 19.053 33.43 1.88 15.896-22.668 31.745-23.63 48.095-.45 11.484 16.28 22.887 13.963 33.496-.934 15.34-21.54 30.558-21.828 45.725-.023 12.77 18.355 24.77 14.424 35.833-1.385 14.897-21.29 28.795-19.773 43.597.275 9.47 12.826 18.6 19.418 33.842 3.547 24.187-25.19 25.362-24.02 50.002.24 4.726 4.654 9.66 9.098 14.495 13.64V221.59c-.194-.357-.368-.716-.553-1.074z" fill="#fff" fill-rule="evenodd"/></svg>