<svg xmlns="http://www.w3.org/2000/svg" width="402" height="470" viewBox="0 0 401.999 469.023"><defs/><g fill="#231f20" fill-rule="evenodd"><path d="M401.446 158.964C401.446 71.172 311.576 0 200.723 0S0 71.173 0 158.964v91.104c0 87.795 89.87 158.965 200.723 158.965s200.723-71.17 200.723-158.965z"/><path d="M402 221.59v247.434l-14.495-13.64c-24.64-24.262-25.816-25.43-50.002-.24-15.243 15.87-24.372 9.28-33.842-3.547-14.802-20.05-28.7-21.564-43.596-.275C249 467.13 237 471.062 224.23 452.707c-15.167-21.805-30.384-21.518-45.725.023-10.61 14.896-22.012 17.215-33.496.934-16.35-23.178-32.2-22.217-48.095.45-12.036 17.172-23.494 12.133-33.43-1.88-16.036-22.613-30.668-19.377-45.946.803-4.6 6.08-11.135 10.7-16.784 15.986V221.59c12.8-23.54 4.2-49.033 6.707-73.513C18.857 107.37 53.69 94.76 87.69 81.153h227.372c34.002 13.607 68.833 26.217 80.23 66.927 2.507 24.476-6.093 49.97 6.707 73.51zm-282.942 83.08c37.496-.644 67.338-31.752 66.463-69.28-.882-37.734-31.76-67.723-69-67.02-37.202.7-67.282 32.157-66.51 69.556.78 37.763 31.436 67.392 69.056 66.746zm91.443-68.007c-.1 37.558 30.315 68.108 67.785 68.08 37.558-.03 67.75-30.377 67.75-68.096-.003-37.52-30.573-68.347-67.756-68.324-37.22.023-67.678 30.734-67.78 68.34z"/><path d="M278.278 168.32c-37.218.023-67.677 30.734-67.78 68.34-.1 37.558 30.315 68.108 67.785 68.08 37.558-.03 67.75-30.377 67.75-68.096-.003-37.518-30.573-68.346-67.756-68.324zm-161.778.047c-37.202.7-67.282 32.157-66.5 69.556.78 37.763 31.436 67.393 69.055 66.747 37.496-.644 67.338-31.752 66.463-69.28-.88-37.735-31.758-67.724-69-67.022z"/></g></svg>