<svg xmlns="http://www.w3.org/2000/svg" width="583" height="454" viewBox="0 0 582.387 453.981"><path d="M291.193 444.06L9.943 186.894 150.568 10.28l140.625 90.896L431.818 10.28l140.625 176.615z" fill="#d81919"/><path d="M428.282 13.815L568.908 190.43v-7.07l-281.25 257.164h7.07L13.48 183.358v7.07L154.104 13.814l-6.06.782 140.625 90.896c1.433.926 3.614.926 5.047 0l140.625-90.896c5.395-3.487.387-12.147-5.047-8.635L288.67 96.857h5.047L153.092 5.96c-1.72-1.112-4.723-.896-6.06.782L6.408 183.358c-1.634 2.053-2.175 5.082 0 7.07l281.25 257.164c2.08 1.9 4.992 1.9 7.07 0L575.98 190.43c2.176-1.99 1.635-5.02 0-7.07L435.355 6.743c-4.018-5.044-11.045 2.082-7.073 7.072z" fill="#891a15"/><linearGradient id="A" gradientUnits="userSpaceOnUse" x1="985.163" y1="705.75" x2="684.905" y2="1006.007"><stop offset="0" stop-color="#fff"/><stop offset=".086" stop-color="#ffdbdb"/><stop offset=".194" stop-color="#ffb5b5"/><stop offset=".294" stop-color="#f99"/><stop offset=".381" stop-color="#f88"/><stop offset=".446" stop-color="#ff8282"/><stop offset=".538" stop-color="#f97373"/><stop offset=".713" stop-color="#e84c4c"/><stop offset=".954" stop-color="#cd0d0d"/><stop offset="1" stop-color="#c70000"/></linearGradient><path transform="translate(-544.061 -685.371)" d="M975.875 696.462l140.625 177.14-281.25 256.487L554 875.102l141.11-178.49 140.14 92.245z" opacity=".3" fill="url(#A)"/><g fill="#fff"><path d="M437.036 162.732l52.997-41.998-63.497-78.496-54.497 36.498z" opacity=".4"/><path d="M182.548 63.236l-17.5 19-27.998-20 18-18.998z" opacity=".2"/></g><path d="M424.747 17.35l140.625 176.615v-14.142l-281.25 257.164h14.143L17.015 179.823v14.142L157.64 17.35l-12.12 1.564L286.146 109.8c2.867 1.853 7.228 1.853 10.095 0l140.625-90.896c10.788-6.973.772-24.293-10.095-17.27L286.146 92.54h10.095L155.616 1.644c-3.44-2.224-9.446-1.792-12.12 1.564L2.872 179.823c-3.27 4.105-4.35 10.163 0 14.142l281.25 257.164c4.16 3.802 9.984 3.802 14.143 0l281.25-257.164c4.35-3.98 3.27-10.036 0-14.142L438.9 3.208c-3.4-4.27-10.615-3.527-14.143 0-4.178 4.177-3.392 9.882 0 14.142z" fill="#800500"/></svg>