<svg xmlns="http://www.w3.org/2000/svg" width="287" height="492" viewBox="0 0 286.087 491.629"><style><![CDATA[.B{fill:#231f20}.C{fill-rule:evenodd}.D{fill:#fce028}]]></style><g fill="#414042"><path d="M273.587 405.098c3.832-25.545-3.648-77.563-12.95-95.268V194.284h.67V161.08h-.67v-49.446c0-57.54-52.57-104.187-117.416-104.187S25.804 54.093 25.804 111.633v49.39h-1v33.206h1v113.346l-8 30.12c-3.742 14.274-7.037 40.02-3.14 66.005-9.997 4.056-7.908 10.84-5.5 21.727l1.933 8.727c2.688 12.145 14.713 19.81 26.856 17.12 11.27-2.496 18.676-13.03 17.537-24.237 13.302 13.26 30.362 23.487 49.7 29.358-12.484 6.086-20.465 15.362-20.465 25.758 0 .664.042 1.322.106 1.977H195.4c.064-.654.106-1.313.106-1.977 0-9.767-7.042-18.547-18.247-24.62 20.83-5.6 39.215-16.175 53.383-30.188-.168 10.474 7.028 19.975 17.655 22.328 12.144 2.688 22.168-1.976 24.856-14.12l3.934-8.727c2.4-10.888 2.4-10.888-3.5-21.727z" class="C"/><path d="M280.82 407.092c2.515-17.63 1.032-35.616-1.36-53.18-2.188-16.055-4.88-33.28-12.345-47.867l1.024 3.785V194.284l-7.5 7.5h.67c4.09 0 7.5-3.412 7.5-7.5V161.08c0-4.088-3.41-7.5-7.5-7.5h-.67l7.5 7.5v-36.626c0-15.38-.36-30.32-5.313-45.12-14.7-43.922-57.368-72.56-102.122-78.238-46.64-5.917-94.935 12.348-122.935 50.68C25.2 68.965 18.303 90.39 18.303 111.66v49.365l7.5-7.5h-1c-4.088 0-7.5 3.412-7.5 7.5v33.206c0 4.088 3.412 7.5 7.5 7.5h1l-7.5-7.5v112.8c0 1.68.666-2.946.016-.498l-5.365 20.2c-6.908 26.008-9.36 52.167-5.522 78.964l3.447-8.47c-11.356 5.002-12.128 15.313-9.846 26.143 1.82 8.633 3.09 17.743 8.783 24.8 8.095 10.05 22.165 13.743 34.168 9.03 12.196-4.79 19.925-17.107 19.007-30.17l-12.803 5.304c14.897 14.642 33.1 25.098 53 31.287l-1.792-13.708c-12.945 6.536-25.307 18.525-24.074 34.2.32 4.074 3.17 7.5 7.5 7.5h110.566c4.33 0 7.18-3.426 7.5-7.5 1.162-14.78-9.84-26.324-21.855-33.073l-1.79 13.708c21.292-5.866 40.854-16.673 56.692-32.117l-12.804-5.304c.354 24.636 29.536 39.768 49.254 24.212 4.108-3.24 5.904-9.27 7.284-12.33l3.692-8.19c1.842-4.086 2.746-9.297 2.716-13.792-.04-5.76-3.366-11.045-6.025-15.928-4.625-8.497-17.578-.927-12.95 7.57 2.732 5.02 5.524 9.662 3.31 14.58-1.982 4.396-3.522 9.024-5.485 13.377-2.655 5.9-8.876 6.75-14.644 5.6-7.318-1.46-12.045-7.808-12.15-15.096-.095-6.564-8.09-9.898-12.804-5.304-14.025 13.677-31.23 23.068-50.073 28.26-6.184 1.704-7.494 10.505-1.79 13.708 7.637 4.3 15.177 10.563 14.426 20.122l7.5-7.5H84.833l7.5 7.5c-.823-10.47 8.25-17.02 16.644-21.26 6.076-3.067 4.045-11.894-1.792-13.708-17.456-5.426-33.335-14.598-46.39-27.43-4.406-4.33-13.277-1.445-12.803 5.304.483 6.88-2.547 13.567-9.296 16.218-7.05 2.77-14.67-.116-18.6-6.417-2.34-3.754-2.756-9.15-3.698-13.403-.73-3.303-1.667-6.594-1.726-9.992-.03-1.65 1.354-2.196 3.778-3.265 3.295-1.45 3.887-5.396 3.447-8.47-3.2-22.362-1.34-45.148 4.438-66.904l5.77-21.723c1.282-4.827 1.2-9.283 1.2-14.285V194.23c0-4.088-3.412-7.5-7.5-7.5h-1l7.5 7.5v-33.206l-7.5 7.5h1c4.088 0 7.5-3.412 7.5-7.5V124.44c0-14.996.396-29.153 5.63-43.505 15.418-42.288 61.23-65.75 104.29-65.987 43.43-.238 88.39 24.124 104.286 65.987 5.408 14.24 5.63 28.585 5.63 43.52v36.626c0 4.088 3.41 7.5 7.5 7.5h.67l-7.5-7.5v33.205l7.5-7.5h-.67c-4.09 0-7.5 3.412-7.5 7.5v109.558c0 2.495-.408 5.525.268 7.982 1.024 3.724 2.803 6.312 4.03 10.077 1.572 4.823 2.77 9.768 3.865 14.718 2.513 11.37 4.103 22.934 5.06 34.533.862 10.474 1.472 21.6-.006 31.95-.576 4.044.927 8.04 5.238 9.227 3.558.978 8.647-1.184 9.226-5.24z"/></g><path d="M246.327 323.347l.692 1.504c.847 1.907-.885-2.178.058.145l1.248 3.27c2.333 6.373 4.054 12.96 5.406 19.605 4.33 21.26 3.24 43.474-1.934 64.467-2.77 11.234 14.532 16 17.3 4.77 5.91-23.97 6.704-48.597 2.16-72.855-1.907-10.18-4.813-20.637-9.438-29.96-5.142-10.368-20.617-1.275-15.492 9.053z" class="D"/><path d="M231.176 423.813c-2.688 12.144 4.976 24.168 17.12 26.857s24.168-4.976 26.856-17.12l1.934-8.727c2.688-12.145-4.977-24.17-17.12-26.857s-24.168 4.975-26.857 17.12z" class="B C"/><path d="M24.433 315.896c-4.64 9.352-7.446 19.767-9.44 29.96-4.723 24.147-3.722 49 2.158 72.855 2.768 11.23 20.07 6.465 17.3-4.77-5.2-21.093-6.1-43.11-1.933-64.467 1.26-6.436 3-12.785 5.178-18.97a105.74 105.74 0 0 1 1.088-2.923l.572-1.434c.663-1.634-.88 2.053-.262.616a37.01 37.01 0 0 1 .829-1.814c5.125-10.327-10.35-19.42-15.492-9.053z" class="D"/><g class="C"><path d="M55.075 425.415c2.7 12.145-4.976 24.168-17.12 26.857s-24.168-4.975-26.856-17.12l-1.933-8.727c-2.688-12.145 4.976-24.17 17.12-26.857s24.17 4.975 26.858 17.12zM195.4 485.128l.106-1.977c0-18.33-24.8-33.2-55.4-33.2s-55.4 14.86-55.4 33.2c0 .664.042 1.322.106 1.977z" class="B"/><path d="M260.637 112.633c0-57.54-52.57-104.187-117.416-104.187S25.803 55.093 25.803 112.633v243.762c0 57.54 52.57 104.186 117.418 104.186s117.416-46.646 117.416-104.186z" class="D"/><circle cx="143.22" cy="174.836" r="53.513" fill="#fff"/><circle cx="143.705" cy="177.761" r="21.388" fill="#a87a51"/><circle cx="143.705" cy="177.759" r="11.866" class="B"/><circle cx="143.557" cy="171.283" r="3.44" fill="#fff"/><path d="M24.803 162.024H70.79v33.206H24.803z" class="B"/><path d="M59.7 153.963h13.893V203.4H59.7z" fill="#fff"/><path d="M213.53 162.08h47.778v33.205H213.53z" class="B"/><path d="M96.714 208.2h98.792s-50.702 74.46-98.792 0z" class="D"/><path d="M213.245 153.04h13.893v49.437h-13.893z" fill="#fff"/></g><path d="M204.558 175.093c-.212 21.413-11.206 40.987-29.458 52.225-18.373 11.312-41.94 11.51-60.805 1.32-18.63-10.063-30.646-29.673-31.687-50.73-1.052-21.273 9.516-41.83 27.173-53.638 18.732-12.528 43.287-13.387 63.033-2.72 19.608 10.6 31.526 31.434 31.744 53.543.114 11.563 18.056 11.575 17.94 0-.232-23.552-10.644-46.142-28.982-61.062C174.55 98.6 149.9 93.103 126.07 98.102c-22.577 4.735-42.3 20.67-52.786 41.013-11.266 21.835-11.05 47.348-1.147 69.566 15.042 33.752 53.542 50.817 88.902 43.402 35.81-7.5 61.104-41.015 61.46-76.99.114-11.573-17.827-11.562-17.942.001z" fill="#949699"/><path d="M114.354 276.562c4.565 5.882 11.105 10.3 17.906 13.133 15.037 6.26 29.834-1.943 39.827-13.133 3.84-4.3-2.482-10.667-6.344-6.344-8.3 9.307-19.404 16.11-31.804 10.507-5.08-2.296-9.817-6.095-13.24-10.507-3.543-4.566-9.844 1.833-6.344 6.344z" class="B"/><g fill="#0976bc" class="C"><path d="M25.803 355.003v3.795c0 57.54 52.57 104.186 117.417 104.186s117.418-46.646 117.418-104.186v-3.795z"/><path d="M96.714 311.093h93.983v77.72H96.714z"/></g><path d="M102.75 311.444c-24.96-.894-51.125-8-72.42-21-1.554-.948-3.086-1.366-4.527-1.372v19.512c23.1 12.934 50.627 19.87 76.947 20.8 11.576.415 11.535-17.53 0-17.942zm157.887-22.11c-1.98-.53-4.225-.3-6.523 1.103-21.294 12.998-47.46 20.115-72.42 21-11.535.412-11.575 18.356 0 17.94 27.088-.97 55.44-8.305 78.943-21.978z" fill="#0976bc"/><g class="B"><path d="M115.686 343.423c0 7.057-.82 14.7 2.1 21.33 4.35 9.907 13.688 15.948 24.445 16.25 10.628.296 20.276-6.75 24.445-16.25 2.91-6.628 2.09-14.272 2.09-21.33 0-1.223-1.02-2.243-2.243-2.243H117.93c-2.893 0-2.893 4.486 0 4.486h48.585l-2.243-2.243c0 5.2.493 10.707-.52 15.83-2.015 10.206-11.477 16.98-21.53 17.26-10.415.29-19.047-7.535-21.53-17.26-1.26-4.937-.52-10.782-.52-15.83.001-2.893-4.485-2.893-4.485 0z"/><g class="C"><circle cx="103.135" cy="321.112" r="6.421"/><circle cx="184.276" cy="321.112" r="6.421"/></g></g></svg>