<svg xmlns="http://www.w3.org/2000/svg" width="269" height="477" viewBox="0 0 268.994 476.683"><path d="M254.96 390.652c3.83-25.545.712-46.987-2.95-61.268V186.838h.67v-33.205H252v-49.446C252 46.647 199.44 0 134.593 0S17.176 46.647 17.176 104.187v49.39h-1v33.206h1V330.25c-3.742 14.274-7.037 36.02-3.14 62.005C4.04 396.3-1.872 407.094.537 417.98l1.933 8.727c2.688 12.145 14.713 19.81 26.856 17.12 11.27-2.496 18.676-13.03 17.537-24.237 13.302 13.26 30.362 23.487 49.7 29.358C84.08 455.034 76.1 464.3 76.1 474.706c0 .664.042 1.322.106 1.977H186.77c.064-.654.106-1.313.106-1.977 0-9.767-7.042-18.547-18.247-24.62 20.83-5.6 39.214-16.175 53.382-30.188-.168 10.474 7.028 19.975 17.655 22.328 12.144 2.688 24.168-4.976 26.857-17.12l1.933-8.727c2.41-10.887-3.5-21.67-13.498-25.726z" fill="#414042" fill-rule="evenodd"/></svg>