<svg xmlns="http://www.w3.org/2000/svg" width="377" height="496" viewBox="0 0 376.969 495.861" fill="#231f20"><path d="M369 218.405c0 80.744-31.05 161.81-78.4 211.776-29.038 30.643-64.205 58.088-102.102 58.086-34.882-.004-67.455-24.553-95.062-51.004-51.288-49.14-85.44-134.176-85.44-218.858C7.998 88.14 88.81 8.04 188.5 8.04S369 88.142 369 218.405z" fill-rule="evenodd"/><path d="M361.032 218.405c-.15 55.628-14.466 111.452-42.075 159.82-13.042 22.85-29.46 42.862-48.586 60.873-19.394 18.264-42.175 34.8-68.785 40.042-26.845 5.288-52.392-7.478-73.57-22.755-21.203-15.298-40.348-34.403-55.574-55.65-31.578-44.06-49.77-97.96-55.013-151.69-4.663-47.78.975-97.806 23.05-140.938C58.372 73.15 87 44.982 123.048 29.127c34.897-15.352 75.783-16.98 112.244-6.6 36.86 10.492 68.48 34.673 89.846 66.293 25.69 38.02 35.78 84.208 35.894 129.586.026 10.276 15.962 10.278 15.937 0-.117-46.603-10.343-93.744-35.384-133.513C320.14 50.835 288.27 24.63 250.49 10.728c-37.23-13.7-79.695-14.098-117.443-2.23C94.712 20.55 62.29 45.915 39.474 78.753 13.11 116.695 1.678 163.3.17 209c-1.84 55.772 11.197 112.277 36 162.157 11.45 23.028 26.018 44.652 43.52 63.52 18.73 20.192 41.315 39.228 66.285 51.13 24.9 11.876 51.802 13.47 77.627 3.504 26.202-10.1 48.357-28.79 67.87-48.56 57.06-57.812 85.276-142.073 85.495-222.347.028-10.277-15.91-10.275-15.937.001z"/></svg>