<svg xmlns="http://www.w3.org/2000/svg" width="377" height="496" viewBox="0 0 376.969 495.861"><path d="M369 218.405c0 80.744-31.05 161.81-78.4 211.776-29.038 30.643-64.205 58.088-102.102 58.086-34.882-.004-67.455-24.553-95.062-51.004-51.288-49.14-85.44-134.176-85.44-218.858C7.998 88.14 88.81 8.04 188.5 8.04S369 88.142 369 218.405z" fill="#d52d25" fill-rule="evenodd"/><g stroke-miterlimit="10" fill="none" stroke="#0a0508" stroke-width="4.25"><path d="M188.5 8.042v263.86s6.618 18.922 12.635 8.5M188.5 102.485s33.1 54.58 95.913 32.014m-31.717 326.553L201.134 295.05v-14.646l78.62-136.18c8.5-9.26 24.502-91.797 24.502-91.797"/><path d="M201.134 280.402"/><path d="M327.94 378.517s-97.058-85.933-126.806-98.114m164.483-106.587L201.134 280.402"/><path d="M205.384 307.798"/><path d="M284.4 134.5s-14.24 54.386 35.175 69.146M189.366 8.042v263.86s-6.618 18.922-12.635 8.5m12.635-177.917s-33.1 54.58-95.913 32.014"/><path d="M125.17 461.052L176.73 295.05v-14.646L98.1 144.223c-8.5-9.26-24.502-91.797-24.502-91.797"/><path d="M176.73 280.402"/><path d="M49.925 378.517s97.058-85.933 126.806-98.114M12.247 173.816L176.73 280.402m-2.63 23.146s15.265-20.388 29.683 0M93.453 134.5s14.24 54.386-35.175 69.146"/><path d="M64.558 207.714c76.234 89.648 43.212 121.746 43.212 121.746 41.533-2.513 45.423 41.37 45.423 41.37s27.02-46.115 71.48 0c0 0 3.89-43.884 45.423-41.37 0 0-33.022-32.098 43.212-121.746"/></g><g fill-rule="evenodd"><g fill="#0a0508"><path d="M344.674 138.546c-48.344 30.205-71.687 46.43-96.73 80.426-15.078 20.465-27.387 42.436-35.25 66.95-2.148 6.713-1.108 11.86 2.648 17.292 11.926 17.255 34.685 24.426 58.196 18.313 21.927-5.702 37.175-20.153 49.188-38.837 22.417-34.882 29.896-73.3 25.69-114.425-.598-5.826-1.36-11.63-2.154-17.435-.176-1.296-.83-10.063-1.587-12.285z"/><path d="M218.63 269.863L201.83 292.97s14.8 20.626 31.406 25.428-14.604-48.536-14.604-48.536z"/></g><path d="M328.835 184.405c-29.778 13-56.79 21.32-76.63 46.538-11.944 15.18-21.697 31.477-27.922 49.666-1.704 4.976-.88 8.792 2.096 12.824 9.446 12.8 27.477 18.12 46.1 13.583 17.372-4.23 29.45-14.947 38.966-28.81 17.76-25.872 23.68-54.37 20.353-84.877-.474-4.32-1.075-1.096-1.706-5.397-.145-.965-.657-1.878-1.26-3.528z" fill="#f9f9f9"/><g fill="#0a0508"><path d="M30.3 138.546c48.342 30.205 71.684 46.43 96.73 80.426 15.078 20.465 27.385 42.436 35.25 66.95 2.146 6.713 1.108 11.86-2.648 17.292-11.926 17.255-34.685 24.426-58.196 18.313-21.927-5.702-37.177-20.153-49.188-38.837-22.417-34.882-29.896-73.3-25.69-114.425.596-5.826 1.357-11.63 2.152-17.435.176-1.296.83-10.063 1.59-12.285z"/><path d="M156.343 269.863l16.8 23.108s-14.8 20.626-31.406 25.428 14.606-48.536 14.606-48.536z"/></g><path d="M46.14 184.405c29.775 13 56.787 21.32 76.63 46.538 11.942 15.18 21.695 31.477 27.922 49.666 1.7 4.976.88 8.792-2.098 12.824-9.446 12.8-27.477 18.12-46.1 13.583-17.373-4.23-29.45-14.947-38.964-28.81-17.76-25.872-23.683-54.37-20.354-84.877.476-4.32 1.075-1.096 1.706-5.397.144-.965.656-1.878 1.26-3.528z" fill="#f9f9f9"/></g><path d="M361.032 218.405c-.15 55.628-14.466 111.452-42.075 159.82-13.042 22.85-29.46 42.862-48.586 60.873-19.394 18.264-42.175 34.8-68.785 40.042-26.845 5.288-52.392-7.478-73.57-22.755-21.203-15.298-40.348-34.404-55.574-55.65-31.578-44.06-49.77-97.96-55.013-151.69-4.663-47.78.975-97.806 23.05-140.938C58.372 73.15 87 44.982 123.048 29.127c34.897-15.352 75.783-16.98 112.244-6.6 36.86 10.492 68.48 34.673 89.846 66.293 25.69 38.02 35.78 84.208 35.894 129.586.026 10.276 15.962 10.278 15.937 0-.117-46.603-10.343-93.744-35.384-133.513C320.14 50.835 288.27 24.63 250.49 10.728c-37.23-13.7-79.695-14.098-117.443-2.23C94.712 20.55 62.29 45.915 39.474 78.753 13.11 116.695 1.678 163.3.17 209c-1.84 55.772 11.197 112.277 36 162.157 11.45 23.028 26.018 44.652 43.52 63.52 18.73 20.192 41.315 39.228 66.285 51.13 24.9 11.876 51.802 13.47 77.627 3.504 26.202-10.1 48.357-28.79 67.87-48.56 57.06-57.812 85.276-142.073 85.495-222.347.028-10.277-15.91-10.275-15.937.001z" fill="#231f20"/></svg>