<svg xmlns="http://www.w3.org/2000/svg" xmlns:xlink="http://www.w3.org/1999/xlink" width="351" height="351"><path fill="#ff3f21" d="M0 .001h351V351H0V.001z"/><defs><path id="A" d="M.004.004h350.992v350.994H.004z"/></defs><clipPath id="B"><use xlink:href="#A"/></clipPath><g clip-path="url(#B)" fill="#231f20"><path d="M329.32 312.303l-.033-4.23c-.2-3.106-.947-6.1-3.184-8.546-3.803-4.158-9.125-7.414-13.554-10.9l-28.78-22.54c-8.208-6.418-18.62-19.154-29.35-10.758l-42.44 33.226c-4.355 3.4-9.88 6.687-13.673 10.802a10.56 10.56 0 0 0-.52.558c-.047.055-.102.104-.147.16-.06.07-.1.146-.17.22l-.216.28a10.52 10.52 0 0 0-2.041 4.933 10.43 10.43 0 0 0-.111 1.747c-.02.155-.026.315-.044.472a53.62 53.62 0 0 0-.234 2.504l-.02.382c-.417 6.636.178 13.662.326 20.234l.03 2.116.004.5v54.877c0 6.094-.532 11.355 4.808 15.535l41.455 32.454c5.98 4.68 13.4 13.27 21.443 13.27 4.23 0 7.5-3.38 10.602-5.8l32.318-25.302c5.288-4.142 10.6-8.175 16.03-12.107 2.47-1.788 4.682-3.757 6.147-6.474 2.187-4.056 1.307-9.433 1.307-13.86 0-24.546-.767-49.23.044-73.76zm-112.06 74.28l-.01-.396-.01-.533.012-68.86.1-4.496 44.853-35.115 37.648 29.475c2.226 1.743 4.7 4.143 7.303 6.226.017.376.027.74.027 1.085v75.47l-44.977 35.2-37.646-29.484c-2.188-1.712-4.616-4.06-7.17-6.117l-.14-2.464zm-63.556-.52c0-24.545-.768-49.23.044-73.76.147-4.487.006-9.132-3.2-12.648-3.803-4.158-9.125-7.415-13.554-10.9l-28.78-22.542c-8.2-6.426-18.62-19.155-29.35-10.757L36.415 288.7c-4.327 3.4-9.8 6.646-13.6 10.725a10.11 10.11 0 0 0-.69.742c-.016.018-.034.034-.05.053s-.037.05-.056.072l-.396.5a10.86 10.86 0 0 0-.448.656l-.024.038a7.62 7.62 0 0 0-.4.712c-.02.035-.036.07-.053.105a8.76 8.76 0 0 0-.323.7c-.022.054-.042.108-.063.162-.088.222-.175.443-.248.668-.023.073-.04.147-.063.22-.083.274-.155.55-.215.83a10.47 10.47 0 0 0-.127.677c-.013.087-.02.175-.03.262a9.65 9.65 0 0 0-.064.68c-.005.082-.004.165-.007.247-.005.16-.016.322-.014.483-.012.096-.016.194-.027.3-.108.9-.198 1.83-.26 2.76l-.034.596a70.91 70.91 0 0 0-.102 2.412l-.02 1.176-.006 1.733c.026 5.83.494 11.772.494 17.298v54.877c0 6.096-.53 11.355 4.8 15.536l41.454 32.454c5.98 4.68 13.4 13.27 21.444 13.27 4.233 0 7.507-3.38 10.602-5.803l32.32-25.3c5.287-4.14 10.6-8.176 16.032-12.107 2.47-1.8 4.68-3.757 6.147-6.476.274-.508.5-1.037.685-1.582 1.307-3.8.632-8.424.632-12.305zm-67.055 38.7L48.996 395.3c-2.187-1.713-4.615-4.06-7.167-6.117-.08-1.213-.164-2.38-.164-3.392v-67.846c0-1.735.094-3.658.123-5.623l44.856-35.117 37.644 29.472c2.227 1.742 4.702 4.142 7.305 6.225.017.38.028.75.028 1.098v75.556l-44.97 35.208zM233.5 230.836c2.47-1.787 4.68-3.756 6.146-6.473 2.187-4.055 1.307-9.432 1.307-13.86 0-24.545-.766-49.237.044-73.76.148-4.487.006-9.13-3.2-12.65-3.8-4.16-9.126-7.416-13.554-10.9l-28.78-22.54c-8.2-6.426-18.624-19.153-29.35-10.756l-42.44 33.225c-4.342 3.4-9.85 6.67-13.642 10.768a10.17 10.17 0 0 0-.592.636c-.034.04-.073.075-.106.114-.04.046-.072.097-.1.144-.1.14-.22.277-.325.422a10.56 10.56 0 0 0-2.091 6.434c-1.063 8.46.044 17.843.044 26.25v54.876c0 6.094-.53 11.356 4.807 15.543l41.455 32.455c5.98 4.68 13.4 13.27 21.445 13.27 4.233 0 7.508-3.38 10.602-5.802l32.317-25.3c5.288-4.14 10.6-8.174 16.032-12.108zm-97.248-11.1c-2.188-1.713-4.618-4.062-7.173-6.12-.078-1.2-.16-2.378-.16-3.4v-67.848c0-1.742.095-3.674.123-5.646l44.858-35.12 37.642 29.47c2.226 1.742 4.7 4.143 7.304 6.226.017.38.028.748.028 1.097v75.6l-44.977 35.212-37.644-29.473zM19.538-43.85l-.004.185c-.5 4.143-.508 8.502-.37 12.86l.017.52.093 2.454.315 10.328v54.878c0 6.094-.53 11.355 4.8 15.536l41.454 32.454c5.98 4.68 13.4 13.27 21.444 13.27 4.234 0 7.507-3.38 10.602-5.802l32.32-25.3c5.288-4.14 10.6-8.175 16.032-12.108 2.47-1.788 4.68-3.755 6.147-6.474.82-1.52 1.208-3.23 1.374-5.002.28-2.96-.064-6.1-.064-8.883 0-24.544-.768-49.23.044-73.758.147-4.488.006-9.132-3.2-12.65-3.803-4.16-9.125-7.415-13.554-10.9l-28.78-22.542c-8.2-6.418-18.62-19.155-29.35-10.758l-42.45 33.226c-4.397 3.442-10 6.75-13.785 10.92a11.49 11.49 0 0 0-.282.303c-.092.103-.188.193-.273.294l-.3.4a10.54 10.54 0 0 0-2.216 6.536zm22.128 10.8l.002-.35.007-.64.113-4.633L86.65-73.778l37.646 29.473c2.226 1.742 4.7 4.142 7.304 6.225a24.67 24.67 0 0 1 .028 1.094v75.552L86.65 73.8 48.997 44.317c-2.187-1.713-4.615-4.06-7.167-6.117-.08-1.213-.164-2.38-.164-3.393V-33.04zm376.506 243.552c0-24.545-.768-49.237.044-73.758.148-4.486.007-9.132-3.2-12.65-3.803-4.16-9.126-7.414-13.554-10.9l-28.78-22.542c-6.2-4.854-13.658-13.297-21.56-13.523-2.616-.116-5.283.662-7.97 2.764l-42.438 33.225c-4.362 3.416-9.9 6.7-13.693 10.825a9.37 9.37 0 0 0-.498.536c-.047.054-.102.104-.147.16-.055.064-.1.133-.152.2a9.29 9.29 0 0 0-.27.35c-1.427 1.92-2.126 4.17-2.104 6.42-1.07 8.472.038 17.873.038 26.295v54.877c0 6.094-.53 11.355 4.8 15.535l41.454 32.454c5.98 4.68 13.4 13.27 21.445 13.27.034 0 .067-.005.102-.005.025 0 .05.005.076.005 4.233 0 7.508-3.38 10.602-5.803l32.317-25.3c5.287-4.142 10.6-8.175 16.03-12.107 2.47-1.788 4.68-3.757 6.147-6.475 2.186-4.054 1.307-9.43 1.307-13.86zm-22.255-72.086v75.593l-44.892 35.144-37.56-29.403c-2.188-1.713-4.615-4.06-7.17-6.116-.08-1.214-.163-2.38-.163-3.393v-67.845c0-1.744.095-3.68.123-5.654l44.77-35.05 37.555 29.402c2.228 1.742 4.703 4.143 7.307 6.226a24.76 24.76 0 0 1 .028 1.096zm-336.2 92.42c2.47-1.788 4.682-3.757 6.147-6.475 2.187-4.055 1.307-9.432 1.307-13.86 0-24.545-.768-49.237.044-73.758.147-4.486.005-9.132-3.2-12.65-3.803-4.16-9.125-7.414-13.553-10.9L21.683 90.66C15.472 85.805 8 77.358.105 77.137c-2.613-.113-5.274.666-7.956 2.765l-42.44 33.225c-4.384 3.432-9.957 6.73-13.75 10.884a10.44 10.44 0 0 0-.365.392c-.072.083-.155.16-.226.243-.083.1-.154.204-.234.304l-.13.168c-1.48 1.958-2.2 4.27-2.163 6.575-1.053 8.45.05 17.817.05 26.212v54.877c0 6.094-.532 11.355 4.807 15.534l41.455 32.455c5.98 4.68 13.4 13.27 21.444 13.27.028 0 .056-.004.084-.004s.063.006.094.006c4.23 0 7.507-3.38 10.6-5.803l32.32-25.3c5.288-4.14 10.6-8.172 16.03-12.105zm-14.797-92.42V214L.04 249.154-37.516 219.75c-2.2-1.714-4.62-4.063-7.176-6.122-.08-1.2-.165-2.377-.165-3.387v-67.845c0-1.745.095-3.68.123-5.655L.04 101.686l37.56 29.407c2.225 1.742 4.7 4.14 7.302 6.224.017.38.028.75.028 1.098zM194.794-40.346c-.4 6.586.172 13.556.324 20.083l.037 2.738-.014 58.094c.014 4.74.446 8.893 4.822 12.318l41.455 32.455c5.98 4.68 13.4 13.272 21.443 13.272 4.23 0 7.5-3.38 10.6-5.803l32.32-25.302c5.288-4.14 10.6-8.176 16.03-12.107 2.47-1.788 4.682-3.756 6.147-6.474 1.237-2.296 1.492-5.017 1.48-7.75-.002-2.136-.174-4.283-.174-6.243l-.326-46.07c-.016-9.196.066-18.386.37-27.555l.036-1.802c.03-3.95-.428-7.9-3.247-10.982-3.8-4.158-9.115-7.414-13.553-10.9l-28.8-22.542c-8.2-6.428-18.62-19.155-29.35-10.758L211.97-62.44c-4.396 3.44-9.985 6.75-13.78 10.918-.1.104-.198.2-.295.317-.084.096-.182.187-.264.284-.098.116-.182.238-.274.357l-.063.083c-1.373 1.8-2.093 3.902-2.175 6.024-.002.038-.001.075-.003.113-.004.166-.014.332-.01.498-.024.198-.034.403-.056.603-.094.82-.174 1.645-.23 2.48-.01.138-.016.278-.024.417zm22.438 6.983l.008-.68.113-4.647 44.86-35.122 37.648 29.476c2.226 1.743 4.7 4.143 7.303 6.226a25.55 25.55 0 0 1 .026 1.045v75.5l-45 35.215-37.647-29.476c-2.188-1.713-4.616-4.06-7.17-6.12l-.137-2.38-.018-.62-.007-.4.003-68.037z"/></g></svg>