<svg xmlns="http://www.w3.org/2000/svg" width="306" height="366" viewBox="0 0 305.064 365.833"><path d="M0 0h54.657v365.833H0z" fill="#373735"/><path d="M0 21.374h54.657v33.15H0zm0 71.68h54.657v33.15H0zm0 71.683h54.657v33.148H0zm0 71.68h54.657v33.15H0zM0 308.1h54.657v33.15H0z" fill="#716d6c"/><path d="M250.41 0h54.655v365.833H250.41z" fill="#373735"/><path d="M250.4 21.374h54.655v33.15H250.4zm0 71.68h54.655v33.15H250.4zm0 71.683h54.655v33.148H250.4zm0 71.68h54.655v33.15H250.4zm.01 71.683h54.655v33.15H250.4z" fill="#716d6c"/><path d="M54.657 37.95H250.41V308.1H54.657z" fill="#cbb64b"/></svg>