<?xml version="1.0" encoding="UTF-8" standalone="no"?>
<!-- Generator: Adobe Illustrator 16.0.0, SVG Export Plug-In . SVG Version: 6.00 Build 0)  -->

<svg
   xmlns:dc="http://purl.org/dc/elements/1.1/"
   xmlns:cc="http://creativecommons.org/ns#"
   xmlns:rdf="http://www.w3.org/1999/02/22-rdf-syntax-ns#"
   xmlns:svg="http://www.w3.org/2000/svg"
   xmlns="http://www.w3.org/2000/svg"
   xmlns:sodipodi="http://sodipodi.sourceforge.net/DTD/sodipodi-0.dtd"
   xmlns:inkscape="http://www.inkscape.org/namespaces/inkscape"
   version="1.1"
   id="Layer_3"
   x="0px"
   y="0px"
   width="351.36099"
   height="351.36099"
   viewBox="0 0 351.36099 351.36099"
   enable-background="new 0 0 640 960"
   xml:space="preserve"
   sodipodi:docname="teletubbyPattern0.svg"
   inkscape:version="0.92.4 (5da689c313, 2019-01-14)"><metadata
   id="metadata12046"><rdf:RDF><cc:Work
       rdf:about=""><dc:format>image/svg+xml</dc:format><dc:type
         rdf:resource="http://purl.org/dc/dcmitype/StillImage" /></cc:Work></rdf:RDF></metadata><defs
   id="defs12044" /><sodipodi:namedview
   pagecolor="#ffffff"
   bordercolor="#666666"
   borderopacity="1"
   objecttolerance="10"
   gridtolerance="10"
   guidetolerance="10"
   inkscape:pageopacity="0"
   inkscape:pageshadow="2"
   inkscape:window-width="640"
   inkscape:window-height="480"
   id="namedview12042"
   showgrid="false"
   inkscape:zoom="0.24583333"
   inkscape:cx="280.333"
   inkscape:cy="-25.061005"
   inkscape:window-x="0"
   inkscape:window-y="0"
   inkscape:window-maximized="0"
   inkscape:current-layer="Layer_3" />
<rect
   x="0"
   y="0"
   width="351.36099"
   height="351.36099"
   id="rect11991"
   style="fill:#8dc63f" />
<g
   id="g11997"
   transform="translate(-39.667,-103.578)">
	<g
   id="g11995">
		<path
   d="m 238.068,415.214 c -4.597,-7.915 1.243,-20.136 5.612,-27.122 2.166,-3.462 -3.298,-6.629 -5.451,-3.187 -5.61,8.969 -11.632,23.131 -5.612,33.495 2.043,3.518 7.501,0.342 5.451,-3.186 z"
   id="path11993"
   inkscape:connector-curvature="0"
   style="fill:#5ead21" />
	</g>
</g>
<g
   id="g12003"
   transform="translate(-39.667,-103.578)">
	<g
   id="g12001">
		<path
   d="m 100.265,172.211 c 0.006,0.007 -0.475,-0.589 -1.033,-1.629 -1.037,-1.932 -1.491,-4.218 -1.69,-6.38 -1.079,-11.717 5.202,-23.438 11.073,-33.062 2.126,-3.485 -3.335,-6.655 -5.451,-3.187 -6.548,10.733 -12.773,23.302 -11.936,36.248 0.274,4.244 1.487,9.311 4.572,12.474 2.847,2.919 7.308,-1.549 4.465,-4.464 z"
   id="path11999"
   inkscape:connector-curvature="0"
   style="fill:#5ead21" />
	</g>
</g>
<g
   id="g12009"
   transform="translate(-39.667,-103.578)">
	<g
   id="g12007">
		<path
   d="m 120.589,172.211 c -0.344,-0.323 0.192,0.417 -0.347,-0.572 -0.473,-0.867 -0.641,-2.184 -0.713,-3.275 -0.459,-6.924 3.024,-14.073 6.042,-20.042 1.833,-3.624 -3.614,-6.821 -5.451,-3.187 -3.65,7.219 -12.003,24.003 -3.996,31.541 2.962,2.787 7.435,-1.669 4.465,-4.465 z"
   id="path12005"
   inkscape:connector-curvature="0"
   style="fill:#5ead21" />
	</g>
</g>
<g
   id="g12015"
   transform="translate(-39.667,-103.578)">
	<g
   id="g12013">
		<path
   d="m 221.928,416.526 c -2.146,-1.433 -5.477,-5.914 -6.831,-9.441 -4.683,-12.201 1.503,-25.489 7.963,-35.727 2.18,-3.454 -3.285,-6.619 -5.451,-3.187 -9.656,15.299 -17.521,41.351 1.132,53.806 3.398,2.269 6.554,-3.203 3.187,-5.451 z"
   id="path12011"
   inkscape:connector-curvature="0"
   style="fill:#5ead21" />
	</g>
</g>
<g
   id="g12021"
   transform="translate(-39.667,-103.578)">
	<g
   id="g12019">
		<path
   d="m 205.027,412.622 c -8.406,-4.654 -7.767,-20.463 -6.406,-28.888 0.644,-3.982 -5.44,-5.69 -6.088,-1.679 -1.781,11.022 -2.508,29.476 9.307,36.018 3.565,1.974 6.749,-3.479 3.187,-5.451 z"
   id="path12017"
   inkscape:connector-curvature="0"
   style="fill:#5ead21" />
	</g>
</g>
<g
   id="g12027"
   transform="translate(-39.667,-103.578)">
	<g
   id="g12025">
		<path
   d="m 297.809,266.657 c -2.723,-2.433 -4.389,-6.724 -5.403,-10.502 -3.605,-13.429 1.041,-28.132 6.215,-40.466 1.575,-3.753 -4.538,-5.375 -6.088,-1.679 -5.65,13.468 -9.635,28.439 -6.409,43.029 1.077,4.871 3.383,10.654 7.221,14.082 3.026,2.703 7.507,-1.746 4.464,-4.464 z"
   id="path12023"
   inkscape:connector-curvature="0"
   style="fill:#5ead21" />
	</g>
</g>
<g
   id="g12033"
   transform="translate(-39.667,-103.578)">
	<g
   id="g12031">
		<path
   d="m 279.58,264.546 c -1.736,-0.613 -4.517,-2.372 -6.321,-4.016 -5.32,-4.847 -5.109,-11.52 -2.699,-17.822 1.457,-3.81 -4.649,-5.441 -6.088,-1.679 -4.775,12.49 0.715,25.113 13.429,29.604 3.849,1.361 5.49,-4.74 1.679,-6.087 z"
   id="path12029"
   inkscape:connector-curvature="0"
   style="fill:#5ead21" />
	</g>
</g>
<g
   id="g12039"
   transform="translate(-39.667,-103.578)">
	<g
   id="g12037">
		<path
   d="m 310.966,265.719 c -2.565,-7.098 3.046,-13.551 8.651,-17.039 3.447,-2.146 0.281,-7.609 -3.187,-5.451 -7.879,4.904 -15.101,14.351 -11.552,24.169 1.373,3.798 7.476,2.16 6.088,-1.679 z"
   id="path12035"
   inkscape:connector-curvature="0"
   style="fill:#5ead21" />
	</g>
</g>
</svg>