<svg xmlns="http://www.w3.org/2000/svg" width="465" height="444" viewBox="0 0 464.172 443.974"><path d="M402.363 302.51c0 94.293-76.438 141.463-170.73 141.463s-170.73-47.17-170.73-141.463 76.438-170.73 170.73-170.73 170.73 76.438 170.73 170.73z" fill="#746fc9"/><circle cx="230.818" cy="308.09" r="124.406" fill="#f7dac4"/><path d="M212.436 100.776l-1.515 58.517c-.247 9.54 8.147 17.5 17.5 17.5 9.727 0 17.253-7.966 17.5-17.5l1.515-58.517c.247-9.54-8.147-17.5-17.5-17.5-9.727 0-17.253 7.966-17.5 17.5zm-201.8 225.737c-16.16-41.58-13.615-81.368 5.678-88.866s48.037 20.13 64.196 61.706 13.615 81.37-5.678 88.867-48.04-20.132-64.196-61.707z" fill="#746fc9"/><path d="M52.746 372.995S-10.602 310.1 23.57 251.72l49.335 114.186s-2.66 2.592-20.16 7.088z" fill="#f7dbc5"/><g fill="#2e2925"><circle cx="159.291" cy="299.251" r="23.568"/><circle cx="303.167" cy="299.251" r="23.568"/><path d="M223.266 327.392c5.542 4.735 12.964 5.006 18.4 0 1.78-1.643-.878-4.3-2.65-2.65-3.853 3.555-9.146 3.366-13.086 0-1.83-1.562-4.494 1.078-2.652 2.65zM286.12 360.6c-57.715 76.705-107.316 0-107.316 0z"/></g><g fill="#fff"><circle cx="145.863" cy="287.468" r="6.906"/><circle cx="290.999" cy="287.468" r="6.906"/></g><ellipse transform="rotate(21.179)" cx="503.66" cy="141.171" rx="37.485" ry="80.776" fill="#746fc9"/><path d="M411.514 373.645S474.8 310.67 440.556 252.34l-49.212 114.24c0 .001 2.663 2.6 20.17 7.065z" fill="#f7dbc5"/><path d="M306.03 5.125l-88.47 83.277h24.75L153.845 5.125 141.47 35h176.936c9.54 0 17.5-7.96 17.5-17.5S327.946 0 318.406 0H141.47c-14.923 0-23.63 19.278-12.375 29.875l88.466 83.277c7.102 6.685 17.647 6.684 24.75 0l88.47-83.277c6.945-6.538 6.59-18.16 0-24.75-6.894-6.896-17.807-6.535-24.748-.001z" fill="#746fc9"/><g fill="#f47a9a"><circle cx="323.381" cy="349.539" r="20.215"/><circle cx="135.722" cy="349.539" r="20.215"/></g></svg>