<svg xmlns="http://www.w3.org/2000/svg" width="464" height="464" viewBox="0 0 463.719 463.892" fill="#ad5858"><circle cx="231.73" cy="231.868" r="226.989"/><path d="M453.72 231.868c-.138 45.375-13.977 89.492-39.755 126.83-24.944 36.128-61.124 64.36-102 80.245-42.802 16.63-90.408 19.28-134.895 8.136-42.97-10.764-81.794-34.852-111.303-67.767C4.46 310.93-7.2 208.386 35.75 127.504c20.636-38.86 52.935-70.785 91.616-91.616 40.287-21.695 86.9-29.72 132.206-24.318C349.264 22.263 424.59 90.2 446.94 177.206c4.588 17.86 6.723 36.234 6.78 54.662.02 6.448 10.02 6.45 10 0-.138-45.242-13.322-89.69-38.17-127.52-24.08-36.663-58.716-66.068-98.676-84.1-41.845-18.873-88.6-24.488-133.832-17.14-43.843 7.123-84.945 27.698-117.77 57.47-67.755 61.45-92.5 160.267-63.004 246.64 29.16 85.387 107.654 146.527 197.117 155.544 90.515 9.123 179.594-38.084 224.417-116.862 19.704-34.63 29.798-74.258 29.92-114.04.02-6.45-9.98-6.448-10 0z"/></svg>