<svg xmlns="http://www.w3.org/2000/svg" xmlns:xlink="http://www.w3.org/1999/xlink" width="464" height="498" viewBox="0 0 463.894 497.316"><style><![CDATA[.B{fill:#ee2a7b}.C{fill:#a26dd1}.D{clip-path:url(#F)}.E{fill:#e6e7e8}.F{fill:#ffc0dd}.G{clip-path:url(#L)}.H{clip-path:url(#D)}.I{stroke-miterlimit:10}.J{stroke-width:1.881}]]></style><circle cx="231.869" cy="231.989" r="226.989" fill="#fe81f7"/><path d="M231.87 10c45.375.138 89.49 13.977 126.828 39.755 36.13 24.944 64.36 61.124 80.245 102.002 16.63 42.802 19.28 90.408 8.136 134.895-10.764 42.97-34.852 81.794-67.767 111.303-68.38 61.305-170.925 72.964-251.807 30.015-38.86-20.635-70.785-52.934-91.616-91.615-21.695-40.287-29.72-86.9-24.318-132.206C22.263 114.457 90.2 39.132 177.207 16.78c17.862-4.6 36.235-6.725 54.662-6.78 6.447-.02 6.45-10.02 0-10-45.242.138-89.69 13.322-127.522 38.17-36.663 24.08-66.068 58.716-84.09 98.676-18.873 41.845-24.488 88.6-17.138 133.832 7.124 43.844 27.7 84.946 57.47 117.77 61.45 67.756 160.268 92.5 246.64 63.004 85.385-29.16 146.526-107.654 155.543-197.117C471.894 163.822 424.688 74.742 345.9 29.92 311.28 10.215 271.652.12 231.87 0c-6.45-.02-6.448 9.98-.001 10z" fill="#f7ff50"/><g transform="translate(-111.828 -230.301)"><path d="M418.813 403.044c15.64-3.996 44.643-12.295 26.712-31.545-18.032-19.45-27.367-7.4-43.53 9.348" class="E"/><path d="M431.004 497.116c10.07 2.184 35.666 15.214 38.374-1.34 5.35-33.1-9.256-33.845-38.278-29.995" fill="#d1d3d4"/><path d="M258.552 390.946c-7.776-1.45-36.686-2.606-37.103-13.784-.435-11.67 18.917-17.322 27.066-19.825" fill="#fff"/><path d="M215.514 354.845c-14.457 21.313-19.623 49.438 8.51 61.386 32.33 13.73-5.03 46.6-13.896 60.065-6.68 10.146-12.512 29.184-2.82 39.668 10.834 11.71 24.71 9.05 24.906 29.22.3 33.16-36.07 51.196-3.392 82.68.773-26.767 18.055-9.763 32.373-19.976 15.972-11.393 7.248-33.657 10.79-49.55 4.196-18.83 29.15-15.755 30.58-33.98 1.472-18.766 11.61-30.234 10.466-50.06-.958-16.57-3.663-35.04-16.465-46.968-14.45-13.472-32.133-16.583-40.472-36.497-7.606-18.158-12.4-77.51-40.578-35.99-7.248 10.684 7.075-10.426 0 0z" class="B"/><defs><path id="A" d="M215.514 354.845c-14.457 21.313-19.623 49.438 8.51 61.386 32.33 13.73-5.03 46.6-13.896 60.065-6.68 10.146-12.512 29.184-2.82 39.668 10.834 11.71 24.71 9.05 24.906 29.22.3 33.16-36.07 51.196-3.392 82.68.773-26.767 18.055-9.763 32.373-19.976 15.972-11.393 7.248-33.657 10.79-49.55 4.196-18.83 29.15-15.755 30.58-33.98 1.472-18.766 11.61-30.234 10.466-50.06-.958-16.57-3.663-35.04-16.465-46.968-14.45-13.472-32.133-16.583-40.472-36.497-7.606-18.158-12.4-77.51-40.578-35.99-7.248 10.684 7.075-10.426 0 0z"/></defs><clipPath id="B"><use xlink:href="#A"/></clipPath><g clip-path="url(#B)"><path d="M246.317 348.597c-13.645 6.626-25.53 21.834-23.78 37.7 2 18.13 21.026 25.634 32.273 37.222 11.198 11.546 17.478 30.63 12.286 46.347-5.847 17.7-30.323 10.635-38.045 26.517-13.41 27.577 44.878 43.68 15.014 77.73-12.958 14.78-22.275 23.806-22.943 44.923-.684 21.62 7.684 43.648 23.498 58.583-35.796-22.04-57.844-39.326-66.618-83.102-8.517-42.506-2.805-86.048 2.016-128.62 4.2-37.186 3.343-78.257 20.528-112.446 5.355-10.653 13.23-23.572 26.053-25.945 8.133-1.504 32.183 15.045 19.72 21.103-16.594 8.058 6.285-3.055 0 0z" fill="#ffd7eb"/><path d="M251.56 409.04c15.973 29.203 47.83 36.3 45.105 76.212-.974 14.274-3.32 34.294-14.56 44.548-14.232 12.97-19.867 18.3-20.477 38.715-.428 14.306-3.026 24.7-11.87 36.1-6.605 8.515-15.905 20.596-6.995 31.153 22.18 26.284 66.098-10.32 80.965-27.1 39.947-45.074 66.176-124.5 41.103-182.965-8.79-20.495-44.53-60.317-68.753-57.87-8.81.887-29.237-5.63-35.88-2.213-12.94 6.657-14.762 32.2-8.638 43.418 3.133 5.73-5.706-10.443 0 0z" class="C"/><path d="M223.507 584.193c43.342-26.31 74.517-100.384 45.77-145.46-12.15-19.046-59.618-74.628-24.85-95.817 28.957-17.666 52.396 43.677 62.45 57.633 9.855 13.668 19.175 20.996 20.48 39.108 1.198 16.623-1.67 33.56-5.338 49.71-3.824 16.837-8.304 33.762-13.695 50.168-6.8 20.688-20.366 37.86-27.324 58.39-4.374 12.903-7.955 29.737-22.165 35.418-13.42 5.364-27.968.795-41.585 6.136-9.543 3.742-7.84-1.838-5.09-9.848 4.89-14.216-4.08-36.072 11.347-45.435 7.62-4.626-15.563 9.445 0 0z" opacity=".4" class="B"/></g><path d="M294.07 276.444c-57.35 3.057-72.51 102.275-29.95 131.058 14.623 9.89 41.02 16.767 47.672 34.91 10.353 28.234-6.476 59.938 10 87.13 36.435 60.096 123.508-7.674 127.313-57.347 5.205-67.962-50.85-134.556-121.54-130.46 6.53-30.36 7.37-67.468-33.507-65.292-39.21 2.1 39.215-2.088 0 0z" fill="#fff"/><defs><path id="C" d="M294.07 276.444c-57.35 3.057-72.51 102.275-29.95 131.058 14.623 9.89 41.02 16.767 47.672 34.91 10.353 28.234-6.476 59.938 10 87.13 36.435 60.096 123.508-7.674 127.313-57.347 5.205-67.962-50.85-134.556-121.54-130.46 6.53-30.36 7.37-67.468-33.507-65.292-39.21 2.1 39.215-2.088 0 0z"/></defs><clipPath id="D"><use xlink:href="#C"/></clipPath><path d="M355.842 498.885c46.356 24.69 78.355-33.666 75.164-71.946-1.97-23.63-10.9-47.623-26.433-65.712-6.31-7.346-22.4-13.798-19.563-24.176 2.573-9.408 11.86-16.312 21.242-17.75 44.557-6.823 93.488 57.322 114.49 89.16 30.503 46.242 41.59 103.977 12.37 153.634-27.93 47.463-61.99 61.753-115.62 60.793-50.425-.903-102.037-32.125-131.65-73.04-16.832-23.257-23.396-86.226-3.46-111.567 22.422-28.504 58.296 52.525 73.46 60.604 21.46 11.43-25.147-13.398 0 0z" class="E H"/><path d="M370.623 522.257c-11.558 16.517 14.506 8.372 12.203-2.274-3.3-15.252-30.714-3.297-12.203 2.274zm-15.247-19.887c-4.1 7.7.626 9.817 6.877 2.52 3.822-4.462-6.733-12.972-9.63-9.103-1.178 2.862-.26 5.056 2.752 6.582zm20.15-9.6c-7.234 14.207 8.182 9.306 11.38-2.888 4.12-15.7-37.004.034-11.38 2.888z" opacity=".64" class="B H"/><path d="M331.806 532.604c-24.92-2.745-45.716 60.838-37.812 78.023 5.824 12.67 22.786 25.787 36.097 29.224 17.07 4.407 25.06-11.96 37.364-19.57 29.8-18.423 57.736 16.396 53.22 44.678-1.66 10.392-15.292 69.896 14.987 61.926 10.784-2.84 4.373-23.592 14.296-31.202 9.56-7.332 18.773-3.51 23.254-17.086 6.73-20.384-13.96-19.313-14.25-36.128-.27-15.48 12.34-25.713 6.453-42.084-13.243-36.83-52.87-19.812-80.574-22.14-13.073-1.098-27.375-6.008-36.773-15.534-7.2-7.298-5.146-28.767-16.26-30.108-4.362-.48.194.024 0 0z" class="B"/><path d="M402.754 526.24c10.1 8.438 37.828 41.802 53.096 27.06 28.15-27.18-8.312-42.6-28.674-54.88" class="E"/><path d="M361.682 354.122c.35-14.528 22.55-45.35 37.53-32.928 6.253 5.18 20.334 12.884 14.604 23.45-5.422 9.997-18.183 17.846-27.658 23.405M249 352.58c-8.96 6.632-38.804 20.945-40.6 32.742-1.98 12.928 41.93 8.992 49.844 9.3L249 352.58z" fill="#fff"/><path d="M243.614 363c-4.175 3.1-22.848 12.876-23.64 17.497-11.15 8.243 26.797 8.755 29.423 8.857L243.614 363z" class="F"/><defs><path id="E" d="M181.36 282.027l41.07 36.6c13.738 12.243 22.403 29.727 34.34 9.983 11.947-19.758-8.286-20.894-25.363-29.04l-35.8-17.076c.016.008-22.404-7.735-14.248-.47z"/></defs><clipPath id="F"><use xlink:href="#E"/></clipPath><path d="M181.36 282.027l41.07 36.6c13.738 12.243 22.403 29.727 34.34 9.983 11.947-19.758-8.286-20.894-25.363-29.04l-35.8-17.076c.016.008-22.404-7.735-14.248-.47z" class="C D"/><path d="M240.315 319.845c10.144-13.98 11.73-26.1-3.24-35.057-19.203-11.503-17.733-5.167-26.567 11.257-8.614 16.016-15 17.943 1.447 29.322 11.41 7.9 19.824 6.238 28.36-5.522 4.533-6.247-2.31 3.184 0 0z" fill="#f9ed32" class="D"/><path d="M223.522 306.804c6.64-8.002 9.967-25.612-2.686-29.81-7.37-2.43-14.898-4.168-22.586-5.22-.833 9.203-4.425 18.135-10.196 25.352-3.225 4.05 9.495 14.994 12.1 17.463 6.177 5.852 18.493-1.918 23.367-7.785 4.535-5.465-2.647 3.187 0 0z" fill="#25e5e0" class="D"/><path d="M201.182 290.103c10.373-20.722-5.792-20.467-21.592-25.845-.56 5.186-9.35 20.928-6.288 25.035 6.117 8.272 23.997 15.633 27.88.8 2.465-4.926-1.06 4.048 0 0z" class="D F"/><defs><path id="G" d="M181.36 282.027l41.07 36.6c13.738 12.243 22.403 29.727 34.34 9.983 11.947-19.758-8.286-20.894-25.363-29.04l-35.8-17.076c.016.008-22.404-7.735-14.248-.47z"/></defs><clipPath id="H"><use xlink:href="#G"/></clipPath><path clip-path="url(#H)" d="M229.28 317.24c5.67 3.75 11.516 8.6 18.62 9.208 5.91.498 13.562-4.928 18.86-1.356 8.153 5.5-8.625 21.463-15.66 20.3-27.418-4.518-82.004-31.796-74.405-68.366 16.453 1.98 39.397 31.49 52.585 40.214 9.3 6.153-9.072-6 0 0z" class="C"/><g fill="none" stroke="#231f20" class="I J"><path d="M308.52 333.757c-.493-4.48-1.852-9.335-5.072-12.647" stroke-linecap="round" stroke-linejoin="round"/><path d="M267.486 346.388l6.274-8.13m4.907 13.582l.242-12.494"/></g><path d="M279.566 326.32c15.015 1.994 12.62 19.994-2.392 18-15.008-1.995-12.62-19.996 2.392-18 6.655.884-6.654-.884 0 0z" fill="#231f20"/><defs><path id="I" d="M294.07 276.444c-57.35 3.057-72.51 102.275-29.95 131.058 14.623 9.89 41.02 16.767 47.672 34.91 10.353 28.234-6.476 59.938 10 87.13 36.435 60.096 123.508-7.674 127.313-57.347 5.205-67.962-50.85-134.556-121.54-130.46 6.53-30.36 7.37-67.468-33.507-65.292-39.21 2.1 39.215-2.088 0 0z"/></defs><clipPath id="J"><use xlink:href="#I"/></clipPath><path clip-path="url(#J)" d="M306.858 326.14c15.8 8.267 37.135-27.774 28.277-32.12" fill="none" stroke="#231f20" class="I J"/><path d="M297.14 345.846c15.382 2.046 12.214 25.89-3.168 23.845-15.39-2.045-12.22-25.9 3.168-23.845 6.584.876-6.586-.875 0 0z" class="F"/><defs><path id="K" d="M331.806 532.604c-4.36-.48-8.15 3.676-11.198 6.365-7.27 6.417-12.56 14.92-17.37 23.238-8.563 14.807-16.392 32.88-9.244 48.42 3.69 8.03 10.824 13.862 17.87 19.194 8.252 6.247 18.084 12.53 28.204 10.37 11.16-2.382 17.682-13.906 27.39-19.9 12.377-7.65 29.632-4.994 40.392 4.804s15.122 25.506 12.827 39.874c-1.26 7.884-4.313 15.39-5.646 23.257-1.756 10.372-.25 21.64 5.94 30.147 2.21 3.037 5.082 5.63 8.322 7.574 6.29 3.775 14.002-1.792 12.546-8.984-.58-2.88-.594-5.87.036-8.743 1.63-7.445 7.5-13.797 14.803-16 3.378-1.022 7.1-1.244 10.045-3.18 3.498-2.283 5.183-6.465 6.492-10.434 1.806-5.468 3.203-11.783.254-16.73-2.844-4.77-8.906-6.767-12.092-11.313-3.328-4.748-2.79-11.233-.94-16.724s4.853-10.595 6.18-16.235c2.683-11.43-2.217-23.893-10.98-31.7s-20.86-11.248-32.594-10.948c-9.83.253-19.458 2.936-29.275 3.446-11.893.62-23.94-2.04-34.472-7.6-6.125-3.24-11.865-7.575-15.492-13.478-2.594-4.213-3.968-9.32-3.5-14.195.435-4.58-3.386-9.495-7.906-10.422a8.02 8.02 0 0 0-.588-.092z"/></defs><clipPath id="L"><use xlink:href="#K"/></clipPath><path d="M314.717 586.176c.71 3.146 1.843 6.405 3.468 9.81 1.913 4.018 4.395 7.88 7.917 10.602 13.616 10.53 31.25-5.335 43.978-9.95 19.792-7.172 43.23 1.98 55.88 18.805s15.436 39.668 10.93 60.23c-1.276 5.806-3.098 11.668-2.425 17.576 1.157 10.173 10.664 18.702 20.904 18.763 4.67.023 9.743-1.412 13.764.97 2.113 1.25 3.557 3.393 4.575 5.626 5.752 12.596-.484 27.448-8.727 38.574-4.35 5.874-9.488 11.472-16.156 14.468-12.444 5.592-26.96.96-39.4-4.654-41.977-18.936-78.9-48.97-105.904-86.27-20.348-28.1-35.333-64.73-22.825-97.092 4.06-10.506 39.092-69.8 53.073-67.58 11.025 1.75-6.337 25.24-8.533 29.085-8.064 14.11-13.82 26.428-10.52 41.037z" fill="#ffd7eb" class="G"/><path d="M330.167 565.003c.734 9.185 6.643 17.784 14.954 21.764 17.518 8.387 38.1-4.06 57.404-1.928 23.21 2.56 39.043 25.716 44.165 48.504 1.248 5.552 2.122 11.356 5.126 16.196 5.744 9.252 18.4 12.554 28.9 9.632 10.492-2.928 18.924-10.925 25.033-19.942 4.393-6.49 7.86-13.795 8.66-21.588 1.266-12.414-4.48-24.743-12.84-34.013-8.365-9.264-19.157-15.94-29.913-22.27a955.3 955.3 0 0 0-97.751-50.204c-.954-.424-1.944-.854-3-.854-2.7 0-4.5 2.7-5.932 5.002-10.366 16.7-36.644 26.758-34.814 49.7z" class="C G"/><path d="M438.986 711.42c-1.555-8.358.875-16.87 2.7-25.178 2.302-10.465 3.672-21.137 4.1-31.844.667-17.134-1.826-35.913-14.11-47.877-4.28-4.165-9.512-7.238-14.97-9.655-5.7-2.526-11.785-4.388-18.018-4.59-6.7-.214-13.287 1.484-19.89 2.593-10.027 1.68-20.5 1.978-30.185-1.116s-18.495-9.955-22.2-19.423c-5.506-14.114 1.2-29.94 9.254-42.774 2.48-3.957 5.247-7.962 9.29-10.293 4.452-2.567 9.837-2.764 14.978-2.894 14.123-.36 28.816-.6 41.67 5.265 10.144 4.638 18.334 12.765 28.3 17.794 7.42 3.745 15.635 5.68 23.13 9.27 16.883 8.09 28.9 24.13 35.994 41.46s9.83 36.074 12.507 54.604c1.02 7.063 2.04 14.207 1.33 21.302-1.108 11.048-6.322 21.205-11.438 31.06-3.88 7.467-7.96 15.182-14.634 20.306-12.98 9.962-33.974 12.57-37.795-8z" opacity=".4" class="B G"/></g><path d="M42.446 208.353l6.327 16.392 14.168 10.387-16.4 6.324-10.387 14.168-6.327-16.4-14.165-10.385 16.386-6.326zM385.87 313.455l4.282 11.094 9.588 7.03-11.1 4.278-7.03 9.6-4.277-11.092-9.6-7.026 11.093-4.282zm-218.283 94.8l4.773 12.372 10.697 7.837-12.373 4.775-7.837 10.692-4.775-12.368-10.693-7.84 12.37-4.773zM365.853 65.792l5.237 13.576 11.735 8.603-13.575 5.24-8.6 11.738-5.244-13.577-11.734-8.603 13.573-5.24zm16.867 51.622l3.146 8.14 7.036 5.155-8.138 3.144-5.164 7.038-3.14-8.14-7.037-5.16 8.14-3.14zM77.612 312.43l2.382 6.17 5.334 3.9-6.17 2.383-3.9 5.335-2.383-6.172-5.337-3.9 6.174-2.382zm163.36-268.173l2.6 6.767 5.85 4.3-6.767 2.613-4.288 5.85-2.613-6.766-5.85-4.3 6.77-2.614zm18.805 375.04l1.73 4.484 3.878 2.84-4.485 1.73-2.842 3.877-1.73-4.484-3.88-2.843 4.5-1.727z" fill="#fff"/></svg>