<svg xmlns="http://www.w3.org/2000/svg" width="325" height="292" viewBox="0 0 324.168 291.659"><defs/><g fill="#262019"><path d="M25.21 179.25l-20.283 25.23c86.517 107.713 225.85 109.678 314.303 5.885l-20.295-25.256L164.25 5.04 25.21 179.246"/><path d="M21.675 175.713l-20.283 25.23c-1.852 2.303-1.86 4.768 0 7.07 29.557 36.578 68.88 65.12 114.616 77.4 42.255 11.347 87.027 6.9 126.912-10.62 30.938-13.59 57.945-35.35 79.846-60.896 1.925-2.244 1.812-4.816 0-7.07L302.47 181.57c-2.04-2.54-6.38-1.565-7.853 1.012l8.63.007L168.567 2.515C166.843.2 162.92-1.26 160.714 1.503L21.673 175.71c-3.98 4.986 3.048 12.11 7.07 7.07L167.785 8.574l-7.853-1.012 134.682 180.074c2.157 2.884 6.608 3.546 8.635 0l-7.85 1.005 20.295 25.256v-7.07c-30.468 35.536-70.4 62.174-116.633 71.56-43.05 8.74-87.897.15-125.926-21.327-25.076-14.162-46.63-33.788-64.673-56.118v7.07l20.283-25.23c4-4.974-3.03-12.097-7.07-7.07z"/></g></svg>