<svg xmlns="http://www.w3.org/2000/svg" width="141" height="141" viewBox="0 0 140.939 140.939"><path d="M0 0h140.94v140.94H0z" fill="#ee4445"/><path d="M37.085 114.812c2.022.834 6.704 1.403 9.016-4.198 1.715-4.15.434-10.74-.343-13.87a1.39 1.39 0 0 0-2.067-.854c-2.76 1.67-8.32 5.434-10.033 9.586-2.314 5.6 1.404 8.5 3.427 9.337zm74.7-25.206c2.186-.062 6.693-1.446 6.526-7.503-.122-4.5-3.974-9.987-5.958-12.53-.578-.74-1.702-.7-2.236.062-1.843 2.647-5.388 8.348-5.264 12.838.166 6.056 4.743 7.194 6.932 7.134zM44.982 48.332c2.2-1.07 6.184-4.56 3.224-10.68-2.192-4.537-8.664-8.387-11.864-10.076-.933-.492-2.07.057-2.26 1.092-.666 3.558-1.668 11.022.526 15.558 2.958 6.118 8.163 5.175 10.374 4.107z" fill="#262019"/></svg>