<svg xmlns="http://www.w3.org/2000/svg" width="325" height="292" viewBox="0 0 324.168 291.659"><defs/><path d="M21.675 175.713l-20.283 25.23c-1.852 2.303-1.86 4.768 0 7.07 29.557 36.578 68.88 65.12 114.616 77.4 42.255 11.347 87.027 6.9 126.912-10.62 30.938-13.59 57.945-35.35 79.846-60.896 1.925-2.244 1.812-4.816 0-7.07L302.47 181.57c-2.04-2.54-6.38-1.566-7.853 1.012l8.63.007L168.567 2.515C166.843.2 162.92-1.26 160.714 1.503L21.673 175.71c-3.98 4.986 3.048 12.11 7.07 7.07L167.785 8.574l-7.853-1.012 134.682 180.074c2.157 2.884 6.608 3.546 8.635 0l-7.85 1.005 20.295 25.256v-7.07c-30.468 35.536-70.4 62.174-116.633 71.56-43.05 8.74-87.897.15-125.926-21.327-25.076-14.162-46.63-33.788-64.673-56.118v7.07l20.283-25.23c4-4.974-3.03-12.097-7.07-7.07z" fill="#262019"/><path d="M313.444 203.163c-85.256 99.82-219.4 97.856-302.732-5.88l-5.784 7.196c86.517 107.713 225.85 109.678 314.303 5.885z" fill="#259c3d"/><path d="M313.444 203.163l-2.647-3.295c-83.794 98-215.577 96.042-297.44-5.876l-2.646 3.3c83.323 103.737 217.477 105.7 302.732 5.88z" fill="#b7da9b"/><path d="M310.797 199.868l-6.953-8.654c-79.952 93.23-205.51 91.273-283.537-5.867l-6.95 8.645C95.22 295.9 227.003 297.87 310.797 199.868z" fill="#e1eed0"/><path d="M25.21 179.25l-4.904 6.098c78.026 97.14 203.585 99.096 283.537 5.867l-4.908-6.107L164.25 5.04 25.21 179.246" fill="#ee4445"/><path d="M86.424 186.024c2.035.804 6.726 1.3 8.95-4.336 1.65-4.175.268-10.747-.558-13.866a1.39 1.39 0 0 0-2.081-.822c-2.735 1.713-8.233 5.564-9.884 9.742-2.225 5.636 1.537 8.48 3.572 9.282zm140.244 12.7c2.062-.732 5.922-3.44 3.896-9.15-1.5-4.234-6.86-8.277-9.533-10.084-.777-.526-1.836-.15-2.107.747-.936 3.1-2.55 9.605-1.05 13.838 2.025 5.7 6.73 5.38 8.793 4.65zM186.37 159.8c2.184-.134 6.644-1.667 6.274-7.716-.27-4.484-4.304-9.85-6.37-12.326-.602-.72-1.725-.653-2.232.136-1.754 2.708-5.107 8.523-4.834 13.007.366 6.045 4.98 7.03 7.163 6.9zm-45.2-7.756c2.16.345 6.846-.187 7.798-6.17.705-4.436-2.067-10.548-3.55-13.414-.433-.834-1.54-1.013-2.2-.352-2.297 2.264-6.832 7.215-7.536 11.65-.952 5.983 3.337 7.944 5.498 8.288zm15.138 52.108c2.158.363 6.85-.127 7.855-6.102.747-4.428-1.97-10.567-3.425-13.447a1.39 1.39 0 0 0-2.207-.371c-2.32 2.242-6.898 7.152-7.645 11.58-1.008 5.974 3.263 7.975 5.422 8.34zm8.384-111.622c2.184-.134 6.644-1.667 6.275-7.716-.27-4.484-4.305-9.85-6.37-12.326-.603-.72-1.725-.653-2.233.136-1.754 2.708-5.107 8.523-4.834 13.007.366 6.046 4.98 7.03 7.163 6.9zm-44.258 30.664c2.146.422 6.85.063 8.02-5.882.87-4.407-1.678-10.617-3.053-13.535-.4-.85-1.504-1.068-2.195-.433-2.38 2.177-7.093 6.958-7.96 11.366-1.173 5.943 3.04 8.06 5.2 8.484zm85.263 3.173c1.947-1 5.416-4.194 2.65-9.585-2.05-3.998-7.896-7.293-10.783-8.732a1.39 1.39 0 0 0-1.992 1.021c-.52 3.184-1.256 9.857.795 13.854 2.764 5.4 7.383 4.44 9.33 3.442z" fill="#262019"/></svg>