<svg version="1.1" xmlns="http://www.w3.org/2000/svg" xmlns:xlink="http://www.w3.org/1999/xlink" width="456.46996" height="94.71086" viewBox="0,0,456.46996,94.71086"><g transform="translate(-8.14943,-267.03912)"><g data-paper-data="{&quot;isPaintingLayer&quot;:true}" fill-rule="nonzero" stroke="none" stroke-linecap="butt" stroke-linejoin="miter" stroke-miterlimit="10" stroke-dasharray="" stroke-dashoffset="0" style="mix-blend-mode: normal"><text transform="translate(284.33333,283.03798) scale(0.36779,0.36779)" font-size="40" xml:space="preserve" fill="#ffffff" fill-rule="nonzero" stroke="none" stroke-width="1" stroke-linecap="butt" stroke-linejoin="miter" stroke-miterlimit="10" stroke-dasharray="" stroke-dashoffset="0" font-family="Sans Serif" font-weight="normal" text-anchor="start" style="mix-blend-mode: normal"><tspan x="0" dy="0">when you use turbowarp:</tspan></text><text transform="translate(8.33333,284.03798) scale(0.36779,0.36779)" font-size="40" xml:space="preserve" fill="#ffffff" fill-rule="nonzero" stroke="none" stroke-width="1" stroke-linecap="butt" stroke-linejoin="miter" stroke-miterlimit="10" stroke-dasharray="" stroke-dashoffset="0" font-family="Sans Serif" font-weight="normal" text-anchor="start" style="mix-blend-mode: normal"><tspan x="0" dy="0">when you don't use turbowarp:</tspan></text><g stroke-width="0.5"><path d="M66.66603,334.17816c-1.56714,-2.14451 -3.27931,-3.86988 -4.35388,-6.40604c-5.1611,-12.18105 11.34362,-21.16395 19.6259,-26.26502c19.58323,-12.06133 56.82229,-8.8857 63.02822,17.35921c0.59015,2.49576 0.36344,5.56011 0.24285,7.97785c-1.10554,22.166 -27.27181,27.44807 -45.51497,28.09878c-9.25103,0.32997 -18.76916,1.82015 -25.95711,-4.71369c-4.58555,-4.16826 -4.9827,-9.30897 -5.9508,-15.11758z" fill="#ffd506"/><path d="M75.11981,315.9972c0,-2.55079 2.06783,-4.61862 4.61862,-4.61862c2.55079,0 4.61862,2.06783 4.61862,4.61862c0,2.55079 -2.06783,4.61862 -4.61862,4.61862c-2.55079,0 -4.61862,-2.06783 -4.61862,-4.61862z" fill="#000000"/><path d="M124.30815,323.15607c0,-2.55079 2.06783,-4.61862 4.61862,-4.61862c2.55079,0 4.61862,2.06783 4.61862,4.61862c0,2.55079 -2.06783,4.61862 -4.61862,4.61862c-2.55079,0 -4.61862,-2.06783 -4.61862,-4.61862z" fill="#000000"/><path d="M79.73844,338.1666c0.66791,-1.16884 0.89729,-2.77918 1.82964,-3.68179c0.14219,-0.13765 0.30073,-0.25885 0.47967,-0.3595c1.92514,-1.08291 5.31685,-1.31162 7.42771,-1.84049c7.77626,-1.94834 14.33904,-3.12166 20.31686,3.30873c2.62853,2.82753 4.04377,6.84874 0.43383,9.33331c-0.51973,0.35771 -1.70184,1.35635 -2.3141,1.32234c-4.64281,-0.25793 -4.25869,-6.84122 -9.25282,-6.34671c-4.32921,0.42867 -8.38142,2.00866 -12.65815,2.70268c-1.02006,0.16553 -3.38718,0.59348 -3.98811,-0.45815z" fill="#000000"/><path d="M76.73633,315.9972c1.16884,0.66791 2.77918,0.89729 3.68179,1.82964c0.13765,0.14219 0.25885,0.30073 0.3595,0.47967c0.14877,0.26447 0.27599,0.59289 0.38148,0.97439c0.05226,0.17339 0.09461,0.35108 0.12637,0.53242c1.03356,5.09937 -1.06049,17.12027 -6.62753,17.42955c-2.18573,0.12143 -4.27515,-3.14923 -4.61862,-4.61862c-0.55243,-2.36332 2.02921,-4.39471 2.07838,-6.51605c0.03675,-1.58536 -0.41048,-7.23723 0.63822,-7.83648z" fill="#00a6d0"/><path d="M129.1577,323.61793c1.16884,0.66791 2.77918,0.89729 3.68179,1.82964c0.13765,0.14219 0.25885,0.30073 0.3595,0.47967c0.34687,0.61664 0.47887,1.09605 0.50967,1.5172c0.04449,0.25737 0.06766,0.52203 0.06766,0.79211c0,0.49186 -0.07689,0.96577 -0.2193,1.41036c0.02491,0.29484 0.09135,0.62326 0.22711,1.00457c1.67439,4.70293 2.58794,8.11466 2.07057,13.28839c-0.24322,2.43219 -1.27753,4.61862 -4.61862,4.61862c-1.55152,0 -2.94421,-1.21222 -4.0413,-2.30931c-0.56106,-0.56106 -0.50049,-1.51958 -0.57733,-2.30931c-0.06521,-0.67025 0.43829,-4.42684 0.23093,-5.60669c-0.4289,-2.44042 -2.18496,-4.52394 -2.30931,-7.09452c-0.01988,-0.41099 -0.27885,-4.82217 0.63822,-5.34621z" fill="#00a6d0"/></g><g stroke-width="0.5"><path d="M349.29208,350.82816l-0.56295,-0.56295l-0.71208,-0.35604l-4.91129,-4.20968l-0.77101,-1.08642l-0.97665,-0.90605l-3.50806,-5.37903l-0.35248,-1.01933l-0.60342,-0.89396l-1.87097,-5.14516l-0.08017,-0.76968l-0.32282,-0.70329l-0.70161,-3.74194l0.0522,-0.87429l-0.21242,-0.8497v-3.04032l0.07722,-0.30892l-0.05651,-0.31337l0.23387,-3.50806l0.39737,-1.23396l0.1269,-1.29014l1.16935,-3.27419l0.88723,-1.33085l0.68237,-1.44662l2.10484,-2.57258l0.5316,-0.39587l0.36345,-0.55426l3.04032,-2.80645l0.15494,-0.08474l0.10221,-0.14402l3.27419,-2.80645l0.74827,-0.37414l0.59668,-0.5864l3.97581,-2.33871l0.19218,-0.05667l0.14864,-0.13434l3.50806,-1.87097l0.29399,-0.0735l0.23723,-0.18857l2.57258,-1.16935l0.27993,-0.05141l0.23294,-0.16355l3.04032,-1.16935l0.47734,-0.05862l0.41943,-0.23529l2.57258,-0.70161l0.41227,-0.00877l0.37571,-0.16996l2.57258,-0.46774l0.84851,0.05533l0.82493,-0.20624h2.80645l0.70198,0.1755l0.7205,-0.06671l3.04032,0.46774l0.82904,0.3482l0.89487,0.08802l3.27419,1.16935l1.12928,0.75285l1.25646,0.5132l3.50806,2.57258l0.15178,0.18276l0.2152,0.10061l3.74194,3.04032l0.07587,0.10115l0.11309,0.05655l3.27419,2.80645l0.33089,0.46625l0.47702,0.31517l2.57258,2.80645l0.12836,0.23666l0.21593,0.1608l2.10484,2.57258l0.6093,1.29172l0.8362,1.15782l0.93548,2.33871l0.10356,0.75942l0.34276,0.68553l0.46774,2.10484l-0.0271,1.02987l0.24987,0.99947v5.6129l-0.07722,0.30892l0.05651,0.31337l-0.23387,3.50806l-0.15779,0.48998l0.03616,0.51349l-0.69387,3.93194l-0.69429,4.16574l-0.12578,0.28929l0.00438,0.31542l-0.93089,3.95626l-0.69709,3.02076l-0.38273,0.75014l-0.13409,0.83138l-0.70161,1.6371l-0.17021,0.22395l-0.06102,0.2746l-0.46774,0.93548l-0.97866,1.14177l-0.0208,0.03466l0.00149,0.0377l-0.06381,0.06618l-0.69057,1.15096l-0.93548,0.93548l-0.40753,0.24452l-0.04234,0.0494l-0.04407,0.00245l-0.42168,0.25301l-0.74119,0.76864l-3.74194,2.33871l-0.63371,0.20553l-0.52498,0.41014l-2.10484,0.93548l-0.45306,0.07928l-0.38804,0.24693l-2.10484,0.70161l-0.48965,0.03766l-0.43926,0.21962l-1.88754,0.41945l-2.35781,0.64304l-0.32921,0.00701l-0.29758,0.14096l-2.33871,0.46774l-0.46533,-0.02216l-0.43846,0.1574l-2.33871,0.23387l-0.07868,-0.01152l-0.07528,0.02562l-2.80645,0.23387l-0.39177,-0.06396l-0.38511,0.09628h-2.33871l-0.41958,-0.1049l-0.42736,0.06648l-2.57258,-0.23387l-1.28202,-0.44722l-1.34533,-0.18346l-2.33871,-0.93548l-0.6827,-0.49306l-0.80105,-0.2598l-1.87097,-1.16935l-0.49376,-0.51205l-0.63623,-0.31812l-1.6371,-1.40323l-0.3936,-0.55461l-0.5586,-0.38791l-1.6371,-1.87097l-0.37322,-0.72779zM375.86706,308.59277l-0.01109,-0.00397l0.05331,0.0385l0.00701,0.00155z" fill="#ffd506"/><path d="M353.16961,303.98387c0,-2.58326 2.09416,-4.67742 4.67742,-4.67742c2.58326,0 4.67742,2.09416 4.67742,4.67742c0,2.58326 -2.09416,4.67742 -4.67742,4.67742c-2.58326,0 -4.67742,-2.09416 -4.67742,-4.67742z" fill="#000000"/><path d="M379.59703,303.75c0,-2.58326 2.09416,-4.67742 4.67742,-4.67742c2.58326,0 4.67742,2.09416 4.67742,4.67742c0,2.58326 -2.09416,4.67742 -4.67742,4.67742c-2.58326,0 -4.67742,-2.09416 -4.67742,-4.67742z" fill="#000000"/><path d="M347.32284,311.23387c1.18372,0.67641 2.81456,0.90871 3.72866,1.85293c0.13941,0.144 0.26214,0.30456 0.36408,0.48578c3.83914,6.82501 4.80015,13.83944 10.4405,20.31354c1.54513,1.77353 3.50796,4.4226 6.01627,5.07103c1.93515,0.50027 3.65844,-1.63515 5.56814,-2.22518c4.32861,-1.3374 8.90123,-5.64813 11.97675,-8.93316c0.87059,-0.92989 0.98318,-2.41486 2.13142,-3.46816c1.54053,-1.41316 7.28629,-4.75807 9.58871,-2.45565c2.36021,2.36021 2.71561,6.10007 0,8.18548c-0.82236,0.63152 -2.1424,0.38844 -2.91859,1.07591c-0.80711,0.71485 -1.21011,2.52677 -2.18439,3.43091c-5.93521,5.50791 -10.81903,8.92801 -18.12672,11.86981c-2.69254,1.08392 -4.99558,2.51611 -7.96558,1.7736c-10.43066,-2.60767 -16.58294,-15.11981 -20.55114,-24.06712c-0.71717,-1.61705 -4.43368,-9.27224 -2.09916,-10.60625z" fill="#000000"/></g></g></g></svg>