<svg version="1.1" xmlns="http://www.w3.org/2000/svg" xmlns:xlink="http://www.w3.org/1999/xlink" width="346.52426" height="78.34763" viewBox="0,0,346.52426,78.34763"><g transform="translate(-69.23786,-143.32617)"><g data-paper-data="{&quot;isPaintingLayer&quot;:true}" fill-rule="nonzero" stroke-linejoin="miter" stroke-miterlimit="10" stroke-dasharray="" stroke-dashoffset="0" style="mix-blend-mode: normal"><g fill-opacity="0.47059" fill="#020303" stroke="none" stroke-width="0" stroke-linecap="butt"><path d="M268.28366,205.2292l-1.30148,-25.33177l-0.09237,-5.8088l1.6503,-25.59147l34.81997,-0.17097l0.01585,2.69218l1.04656,-2.49323l35.35278,0.00227l-0.01958,1.93128l1.058,-1.93188l34.86523,0.08152l0.46476,1.55585l1.17799,-1.52829l34.66009,-0.11502l3.37954,10.11361l-6.74344,8.43833l7.14427,24.31886l-13.49135,13.71394l-16.42523,-0.05978l-6.55859,-26.52827l-7.28727,10.70705l-5.61535,-0.34324l0.3914,2.4996l-9.57274,13.84291l-16.7573,-0.1891l-0.26912,-1.63271l-1.13546,1.58879l-16.64844,-0.08127l-0.71914,-1.63618l-0.48136,1.48716l-16.88773,0.11071l-0.39886,-1.89446l-0.77812,1.98957l-16.743,0.25052l-0.37084,-2.40277l-0.6049,2.50058z"/><path d="M74.23787,191.38099l13.24982,-42.88384h17.38149l7.55097,11.11276l0.44031,-3.51098l4.81377,0.08781l1.56741,-7.5186l16.6116,-0.0559l1.526,1.94886l0.05697,-1.81767l16.68967,0.00414l1.06998,1.84335l0.10009,-1.6823l17.23459,-0.01472l4.06287,9.36969l1.20496,-9.56507l16.95389,-0.02441l1.21215,2.52947l0.05844,-2.67089l34.85661,0.10808l0.26026,2.74569l0.71851,-2.55896l35.37611,-0.07391l0.73184,2.35322l0.53363,-2.27741l0.21168,25.28485l-18.78308,-0.08758l-0.17799,5.70636l19.00028,0.05562l-0.41268,25.26005l-1.16562,-2.56628l-0.16439,2.36368l-34.83401,0.21325l-0.73013,-2.67132l-0.08192,2.71397l-35.1659,0.06073l-0.68962,-2.39367l-0.52348,2.08627l-16.71872,0.07357l-4.09078,-8.78882l-1.31319,9.02131l-16.78461,0.00244l-1.53161,-1.81563l-0.01953,1.80176l-16.0098,-0.13994l-1.76781,-1.62725l-0.5026,1.69051l-15.88922,-0.14802l-7.10692,-7.74602l-4.2727,-0.26783l-1.31296,-0.94903l-2.45677,8.92308l-15.81497,0.66383z"/><path d="M119.50639,221.31726l4.71451,-22.33555l52.84561,0.00134l-0.42009,2.83574l2.7678,0.02122l0.59303,-2.85687l36.59922,0.00093l-0.42924,3.37614l3.12386,-0.0235l0.49037,-3.33194l12.62128,0.06969l-0.12188,2.94694l2.48131,0.04393l0.33614,-2.97432l6.98683,0.03934l0.73488,5.98188l3.28082,-0.13682l0.29039,-5.8596l7.41748,-0.02908l0.13128,21.8323l-7.86678,-0.04926l-0.41579,-5.04307l-2.73271,-0.01413l-0.52578,5.27543l-23.76507,-0.00768l0.38984,-2.75593l-3.94711,-0.22246l0.35331,-7.67381l-3.69857,0.01458l-0.72221,10.48946l-9.94489,0.00779l0.58229,-10.60416l-2.72921,-0.026l-1.11024,10.7725l-8.41293,-0.0014l0.14059,-5.17174l-3.48233,-0.1089l-0.86881,5.27978l-15.59201,-0.00279l0.31043,-6.26609l-1.58002,-0.01011l-1.06887,6.28463z"/><path d="M259.04494,221.54164l-0.06684,-22.20029h34.87661c0,0 0.03014,1.4302 0.05721,2.71482c0.00806,0.38261 1.877,0.08034 1.877,0.08034l0.74677,-2.40798l44.24536,-0.34447l0.4046,2.62631l1.69482,0.05634l1.50633,-2.5485l12.06174,0.05911l0.45273,2.4498l1.72165,0.18476l1.24495,-2.63376l7.00572,0.01312l0.71209,2.79618l2.81697,-0.11895l1.49787,-2.73753l6.29313,0.05064l3.9461,17.29333l-2.86709,4.68641l-6.19408,0.01531l-0.1878,-3.32101l-3.67796,-0.02962l-1.3943,3.01355l-6.58735,0.43426l-0.35032,-3.29536l-1.8426,0.02137l-1.0838,3.08524l-12.5055,0.03365l-0.55895,-3.22539l-2.163,-0.04562l-0.71305,3.1877l-12.83206,0.02994l-0.70992,-6.21367l1.04699,-2.43503l0.32147,-3.38108l-6.3503,0.02653l0.92535,8.02496l-1.61742,3.90985l-6.64617,0.08022l-1.57062,-11.75387l-5.66259,-0.10975l0.09658,1.39463l1.68856,-0.0574l0.8113,6.45281l-1.34838,4.20144l-13.14118,0.01079l-0.26828,-3.45181l-2.50317,0.13008l0.06844,3.24761z"/></g><g><path d="M263.28367,200.22919l-1.30148,-25.33177l-0.09237,-5.8088l1.6503,-25.59147l34.81997,-0.17097l0.01585,2.69218l1.04656,-2.49323l35.35278,0.00227l-0.01958,1.93128l1.058,-1.93188l34.86523,0.08152l0.46476,1.55585l1.17799,-1.52829l34.66009,-0.11502l3.37954,10.11361l-6.74344,8.43833l7.14427,24.31886l-13.49135,13.71394l-16.42523,-0.05978l-6.55859,-26.52827l-7.28727,10.70705l-5.61535,-0.34324l0.3914,2.4996l-9.57274,13.84291l-16.7573,-0.1891l-0.26912,-1.63271l-1.13546,1.58879l-16.64844,-0.08127l-0.71914,-1.63618l-0.48136,1.48716l-16.88773,0.11071l-0.39886,-1.89446l-0.77812,1.98957l-16.743,0.25052l-0.37084,-2.40277l-0.6049,2.50058z" fill="#020303" stroke="none" stroke-width="0" stroke-linecap="butt"/><path d="M69.23787,186.38098l13.24982,-42.88384h17.38149l7.55097,11.11276l0.44031,-3.51098l4.81377,0.08781l1.56741,-7.5186l16.6116,-0.0559l1.526,1.94886l0.05697,-1.81767l16.68967,0.00414l1.06998,1.84335l0.10009,-1.6823l17.23459,-0.01472l4.06287,9.36969l1.20496,-9.56507l16.95389,-0.02441l1.21215,2.52947l0.05844,-2.67089l34.85661,0.10808l0.26026,2.74569l0.71851,-2.55896l35.37611,-0.07391l0.73184,2.35322l0.53363,-2.27741l0.21168,25.28485l-18.78308,-0.08758l-0.17799,5.70636l19.00028,0.05562l-0.41268,25.26005l-1.16562,-2.56628l-0.16439,2.36368l-34.83401,0.21325l-0.73013,-2.67132l-0.08192,2.71397l-35.1659,0.06073l-0.68962,-2.39367l-0.52348,2.08627l-16.71872,0.07357l-4.09078,-8.78882l-1.31319,9.02131l-16.78461,0.00244l-1.53161,-1.81563l-0.01953,1.80176l-16.0098,-0.13994l-1.76781,-1.62725l-0.5026,1.69051l-15.88922,-0.14802l-7.10692,-7.74602l-4.2727,-0.26783l-1.31296,-0.94903l-2.45677,8.92308l-15.81497,0.66383z" fill="#020303" stroke="none" stroke-width="0" stroke-linecap="butt"/><path d="M82.84386,152.14039l1.99459,-5.88881l13.01237,0.09498l-1.89961,5.98379z" fill="#a9a09d" stroke="none" stroke-width="0" stroke-linecap="butt"/><path d="M77.14502,170.9466l5.4139,-17.76141l17.66643,0.09498l-2.16995,7.95647l27.98088,-0.34096l-5.58283,24.52347l-14.70799,0.2728l4.39639,-16.95604l-4.68886,-0.10225l-2.1107,8.22072l-9.21836,0.01026l1.82729,-7.91263l-4.71703,-0.04507l-1.99513,7.4609l-8.6179,-0.37871l1.23474,-4.68754z" fill="#a9a09d" stroke="none" stroke-width="0" stroke-linecap="butt"/><path d="M79.80448,180.8246l1.20885,-3.74743l7.71935,0.13815l-1.42471,3.9892z" fill="#a9a09d" stroke="none" stroke-width="0" stroke-linecap="butt"/><path d="M72.1024,185.65135l4.66269,-13.56499l4.19642,0.31085l-2.20236,8.89011l8.34453,0.62775l-0.93549,3.81398z" fill="#a9a09d" stroke="none" stroke-width="0" stroke-linecap="butt"/><path d="M108.01378,160.09979l1.60518,-6.35421l9.8685,-0.06649l-0.73135,6.34472z" fill="#a9a09d" stroke="none" stroke-width="0" stroke-linecap="butt"/><path d="M114.28253,152.52031l1.9946,-6.45869l13.10735,0.09499l-3.13436,13.96218l-6.4624,-0.10693l0.567,-7.36503z" fill="#a9a09d" stroke="none" stroke-width="0" stroke-linecap="butt"/><path d="M125.21125,185.77547l9.08254,-39.85632l13.03612,0.10685l-1.4603,7.42669l-5.79393,0.78029l5.65497,0.62083l-6.09418,31.02852l-7.05439,-0.04038l0.1083,-6.4192l-1.81535,6.40091z" fill="#a9a09d" stroke="none" stroke-width="0" stroke-linecap="butt"/><path d="M147.066,172.60012c0,0 1.71303,-9.80235 2.51883,-14.41329c0.7434,-4.25392 2.14387,-12.26769 2.14387,-12.26769l13.25317,0.14188l-0.53018,6.0655l-5.22352,0.61889l5.10698,0.31811l4.38408,0.1647l-0.71894,7.82801l4.65474,0.2293l0.76727,-7.65001l13.59937,0.7723l-3.66435,31.40326l-4.46592,-0.01156l0.93829,-12.86398l-13.49114,0.18507l0.83406,-8.38325l-4.7623,-0.08069l-1.21736,8.13562z" fill="#a9a09d" stroke="none" stroke-width="0" stroke-linecap="butt"/><path d="M144.7541,185.46139l2.09821,-11.88987l14.06579,0.54398l-1.70965,11.50131l-7.38296,-0.0071l0.15531,-4.97551l-1.94387,4.97174z" fill="#a9a09d" stroke="none" stroke-width="0" stroke-linecap="butt"/><path d="M173.83018,151.95774l0.72332,-5.98379l13.47997,-0.26302l-0.98633,8.15374l-5.4457,-0.25176z" fill="#a9a09d" stroke="none" stroke-width="0" stroke-linecap="butt"/><path d="M169.07171,185.63574l1.44663,-11.44154l8.351,-0.26302l-0.92059,11.79909z" fill="#a9a09d" stroke="none" stroke-width="0" stroke-linecap="butt"/><path d="M188.46971,185.76726l0.78907,-8.2195h6.04954l-0.32878,7.89071z" fill="#a9a09d" stroke="none" stroke-width="0" stroke-linecap="butt"/><path d="M212.99669,185.79648l0.28495,-5.23855l5.69884,-0.28494l0.72332,-3.02478l3.22204,-0.06575l-0.52605,8.61403z" fill="#a9a09d" stroke="none" stroke-width="0" stroke-linecap="butt"/><path d="M189.44784,176.72855l1.98746,-18.83043l8.49057,-0.11725l-8.30528,-0.85961l1.10408,-10.96649l31.55738,-0.14247l-0.05801,7.35359l-18.93079,-0.1463l-0.55768,7.75531l8.72087,0.30415l0.4961,6.12878l0.92631,-6.12374l8.3805,0.03146l0.08379,7.69983l-19.18673,0.01362l-0.60391,8.39823l15.65419,0.01487l-0.74102,2.38996l-5.73429,0.15195l-0.33006,5.85713l-16.54309,0.00574l0.13669,-8.87357z" fill="#a9a09d" stroke="none" stroke-width="0" stroke-linecap="butt"/><path d="M227.71675,185.66862l0.62137,-18.14122l3.40438,-0.77898l-3.43594,-0.50703l0.63138,-20.62754c0,0 4.24479,0.01652 7.42444,0.02888c3.61388,0.01406 12.24563,0.04765 18.0993,0.07043c3.39853,0.01322 5.86064,0.02281 5.86064,0.02281l0.46481,7.20806l-18.24078,0.3608l-0.23952,6.8677l-10.72276,-1.72089l10.63728,2.91546l0.08566,15.61358l18.68064,0.13479l0.43371,8.55315h-20.52807l-1.1727,-1.12822l-4.04174,-0.66692l-1.36772,1.79514z" fill="#a9a09d" stroke="none" stroke-width="0" stroke-linecap="butt"/><path d="M268.89348,185.43354l2.11436,-3.65581l-0.16963,-7.88435l9.38173,-0.42741l1.06853,12.18129z" fill="#a9a09d" stroke="none" stroke-width="0" stroke-linecap="butt"/><path d="M266.45721,185.71136l-0.85483,-27.61092l5.47089,0.17097l1.28371,1.89369l5.13471,0.40993l-4.84853,-1.89111l-1.48804,-12.80883l7.36675,0.02174l0.61401,15.0973l5.6954,0.05112l0.52192,7.85248l-5.2555,-0.33106l0.1301,4.49474l-10.24988,-0.34229l0.326,8.88907l-1.96645,3.92119z" fill="#a9a09d" stroke="none" stroke-width="0" stroke-linecap="butt"/><path d="M265.60238,156.90368l-0.59838,-11.02727l4.958,0.08548l1.28224,11.45469z" fill="#a9a09d" stroke="none" stroke-width="0" stroke-linecap="butt"/><path d="M286.42167,185.4984l-0.84156,-9.09186l8.66073,-0.67972l-8.84722,-0.62493l-0.60391,-6.21156l-0.79188,-15.93158l-5.63726,0.16051l-7.14631,-7.28852l25.20799,0.2223l2.37992,14.86531l-5.48166,-0.43344l0.35108,2.54728l-5.2511,0.58186l5.06907,0.21322l0.04148,1.12788l5.20235,0.0496l2.25363,20.41594l-8.63555,0.21863l-0.85996,-1.92597l-0.32647,1.88809z" fill="#a9a09d" stroke="none" stroke-width="0" stroke-linecap="butt"/><path d="M325.43676,185.38368l-1.42471,-9.02317l14.3421,1.13978l1.32974,8.16835z" fill="#a9a09d" stroke="none" stroke-width="0" stroke-linecap="butt"/><path d="M305.57626,185.63939l-4.27414,-39.607l31.32524,-0.13331l5.62291,30.90786l-14.30258,-1.39352l-1.09844,-8.54606l3.25405,-0.05782l-1.12459,-7.46174l-3.09035,-0.27026l0.02169,-2.02567l5.56173,0.25918l-0.54385,-5.17471l-6.36839,0.02846l0.6794,4.70678l-5.22655,-0.20228l-0.4119,-4.82129l-6.09459,0.32861l0.47739,4.97106l5.55683,0.07414l0.22092,1.79468l-2.39912,0.10175l0.55171,7.38308l3.20868,0.04319l-0.11029,-2.31327l5.08301,-0.07548l0.7615,2.60935l0.93117,6.01158l-5.57901,-0.05471l1.70965,13.10736l-5.56429,-0.02257l-1.25281,-2.05459l-0.1165,2.04834z" fill="#a9a09d" stroke="none" stroke-width="0" stroke-linecap="butt"/><path d="M344.91968,185.81109l-7.55097,-39.82718l17.25197,0.03885l0.60982,3.03255l2.87705,1.17723l1.70264,2.83608l-7.3852,0.07363l1.69165,7.74162l9.5787,0.0202l1.19805,7.88789l-8.64938,0.04701l2.9228,16.82965z" fill="#a9a09d" stroke="none" stroke-width="0" stroke-linecap="butt"/><path d="M365.89931,168.79887l-1.26189,-7.93768l8.0598,-0.06106l2.07601,7.99874z" fill="#a9a09d" stroke="none" stroke-width="0" stroke-linecap="butt"/><path d="M360.7907,152.98456l-1.70962,-3.37533l-3.28532,-1.18161l-0.62249,-2.28168l14.10465,-0.24423l1.64859,7.20497z" fill="#a9a09d" stroke="none" stroke-width="0" stroke-linecap="butt"/><path d="M393.84077,185.49053l-3.09875,-10.47163l14.10465,-0.42741l3.31246,10.89905z" fill="#a9a09d" stroke="none" stroke-width="0" stroke-linecap="butt"/><path d="M400.78624,152.90024l-2.13707,-7.05233l6.73177,0.10685l2.56448,7.05233z" fill="#a9a09d" stroke="none" stroke-width="0" stroke-linecap="butt"/><path d="M375.91403,153.1797l-1.84117,-7.54549l24.00914,0.19727l1.82733,7.13366l-1.53059,-0.09661l6.43352,20.79621l-14.19078,-0.10748l-6.21941,-22.68085l-0.85215,-0.12146l0.46029,2.359z" fill="#a9a09d" stroke="none" stroke-width="0" stroke-linecap="butt"/><path d="M85.29875,197.70197l-13.21694,-12.03334h14.13753l5.33046,5.65866l-6.35954,0.30726l7.12216,0.50231l5.21693,5.36784z" fill="#282729" stroke="none" stroke-width="0" stroke-linecap="butt"/><path d="M105.24583,189.19643l-5.59843,-5.66296l4.87823,-0.68725l-5.68038,-0.29481l-4.6267,-5.66449l9.06117,0.08548l3.43543,4.63728l-0.80102,3.97249l1.46876,3.3578z" fill="#282729" stroke="none" stroke-width="0" stroke-linecap="butt"/><path d="M116.48133,197.73594l-10.48588,-12.19554l14.19013,-0.11397l7.52248,9.97299l-6.92509,0.59917l7.75326,1.21543z" fill="#282729" stroke="none" stroke-width="0" stroke-linecap="butt"/><path d="M134.83161,197.84991l-9.68804,-12.25252l5.58463,0.19138l4.50224,4.67096l-2.62135,-4.67528l7.00955,-0.0161l7.57947,11.91059z" fill="#282729" stroke="none" stroke-width="0" stroke-linecap="butt"/><path d="M152.32707,197.50798l-7.46549,-12.25252l5.12824,0.17546l2.90633,4.50952l-1.08294,-4.3746l7.46647,-0.13942l6.09777,11.85361z" fill="#282729" stroke="none" stroke-width="0" stroke-linecap="butt"/><path d="M175.10289,198.49103l-1.61151,-3.5502l4.65361,-1.31013l-5.25914,0.00914l-3.87361,-8.02465l8.92235,0.0995l2.18984,5.61516l-1.22769,-5.60443l4.48729,0.05004l4.96868,12.02101z" fill="#282729" stroke="none" stroke-width="0" stroke-linecap="butt"/><path d="M193.26166,197.52741l-4.89583,-11.88987l6.45021,-0.17015l2.55991,7.58855l-1.54925,-7.58516l16.46956,0.05572l0.57307,1.97808l0.22858,-1.97521l9.3056,0.03047l1.39881,11.81217z" fill="#282729" stroke="none" stroke-width="0" stroke-linecap="butt"/><path d="M229.58378,197.70197l-0.55453,-3.55663l4.48281,-1.62517l-4.7277,0.05445l-1.1075,-7.10326h6.77286l2.16995,1.1836l3.17522,0.76192l0.83589,-1.94554l13.67724,0.19727l-1.11785,12.2306z" fill="#282729" stroke="none" stroke-width="0" stroke-linecap="butt"/><path d="M253.71617,197.83347l1.31513,-12.2306h6.44408l-1.57815,11.90183z" fill="#282729" stroke="none" stroke-width="0" stroke-linecap="butt"/><path d="M265.7331,193.33576l0.65756,-7.89071l1.84084,0.0084l-0.6571,2.43481l1.644,-2.43162l12.09886,0.05417l-2.10419,8.87705z" fill="#282729" stroke="none" stroke-width="0" stroke-linecap="butt"/><path d="M265.79886,196.95234l-0.13152,-2.69599l13.41422,0.53427l-1.51239,2.9508z" fill="#282729" stroke="none" stroke-width="0" stroke-linecap="butt"/><path d="M283.29539,197.58579l3.24834,-12.13855l4.61579,-0.0362l0.11439,1.64819l1.0823,-1.65758l8.7196,-0.06839l-2.0424,4.58264l-4.12585,0.0333l3.78132,0.94635l-2.913,6.29132z" fill="#282729" stroke="none" stroke-width="0" stroke-linecap="butt"/><path d="M301.47474,197.47181l4.10317,-11.91059l7.46579,0.08853l0.34453,2.17437l0.9667,-2.15883l5.64107,0.06689l-2.72539,5.80893l-8.09846,0.16843l7.58415,0.82782l-2.45915,4.76347z" fill="#282729" stroke="none" stroke-width="0" stroke-linecap="butt"/><path d="M319.26061,197.49374l6.04078,-12.19554l14.41809,0.39892l-7.23754,11.73963z" fill="#282729" stroke="none" stroke-width="0" stroke-linecap="butt"/><path d="M337.38298,197.6647l3.56527,-5.7364l7.70157,-0.37642l-6.93137,-1.02246l3.13002,-4.77531l14.3611,-0.11397l-8.77622,11.79662z" fill="#282729" stroke="none" stroke-width="0" stroke-linecap="butt"/><path d="M382.90015,197.18504l4.59474,-5.01031l8.0968,-0.5396l-6.04983,-1.34444l4.18609,-4.85951l14.53206,0.14247l-12.18129,11.6114z" fill="#282729" stroke="none" stroke-width="0" stroke-linecap="butt"/><path d="M238.24434,159.04352l-5.4139,-0.9973" fill="none" stroke="#e1dcd7" stroke-width="1" stroke-linecap="round"/><path d="M253.06137,185.16997l-10.82782,-0.14247" fill="none" stroke="#e1dcd7" stroke-width="1" stroke-linecap="round"/><path d="M256.19572,185.03601l4.34537,-0.00851" fill="none" stroke="#e1dcd7" stroke-width="1" stroke-linecap="round"/><path d="M236.15567,183.14402l3.49054,0.53136" fill="none" stroke="#e1dcd7" stroke-width="1" stroke-linecap="round"/><path d="M233.18664,184.86083l-4.41661,0.03136" fill="none" stroke="#e1dcd7" stroke-width="1" stroke-linecap="round"/><path d="M213.59684,185.0275h7.69345" fill="none" stroke="#e1dcd7" stroke-width="1" stroke-linecap="round"/><path d="M211.31728,185.0275h-14.31836" fill="none" stroke="#e1dcd7" stroke-width="1" stroke-linecap="round"/><path d="M194.57693,185.09873h-5.12896" fill="none" stroke="#e1dcd7" stroke-width="1" stroke-linecap="round"/><path d="M179.47499,185.0275h3.06313" fill="none" stroke="#e1dcd7" stroke-width="1" stroke-linecap="round"/><path d="M173.06376,172.56127h4.84402" fill="none" stroke="#e1dcd7" stroke-width="1" stroke-linecap="round"/><path d="M170.14312,184.95627l6.62491,0.07123" fill="none" stroke="#e1dcd7" stroke-width="1" stroke-linecap="round"/><path d="M149.48477,185.16998l-3.41931,-0.21371" fill="none" stroke="#e1dcd7" stroke-width="1" stroke-linecap="round"/><path d="M152.47667,184.95627l6.05502,0.21371" fill="none" stroke="#e1dcd7" stroke-width="1" stroke-linecap="round"/><path d="M149.05736,172.3188h3.9892" fill="none" stroke="#e1dcd7" stroke-width="1" stroke-linecap="round"/><path d="M138.87068,185.38367l-5.2002,-0.28494" fill="none" stroke="#e1dcd7" stroke-width="1" stroke-linecap="round"/><path d="M126.26196,185.09874l3.56178,0.07123" fill="none" stroke="#e1dcd7" stroke-width="1" stroke-linecap="round"/><path d="M107.527,185.0275l11.04152,0.21371" fill="none" stroke="#e1dcd7" stroke-width="1" stroke-linecap="round"/><path d="M106.31599,168.50084h3.34808" fill="none" stroke="#e1dcd7" stroke-width="1" stroke-linecap="round"/><path d="M117.64245,159.38268l-5.91256,-0.07123" fill="none" stroke="#e1dcd7" stroke-width="1" stroke-linecap="round"/><path d="M95.06076,176.33675l7.1948,0.07123" fill="none" stroke="#e1dcd7" stroke-width="1" stroke-linecap="round"/><path d="M91.9264,168.21589l3.84672,0.21371" fill="none" stroke="#e1dcd7" stroke-width="1" stroke-linecap="round"/><path d="M78.17792,170.63791h2.84942" fill="none" stroke="#e1dcd7" stroke-width="1" stroke-linecap="round"/><path d="M73.26267,185.0275l11.6114,0.14247" fill="none" stroke="#e1dcd7" stroke-width="1" stroke-linecap="round"/><path d="M204.9478,168.07139l8.03538,0.17097" fill="none" stroke="#e1dcd7" stroke-width="1" stroke-linecap="round"/><path d="M215.03478,168.07139h7.26603" fill="none" stroke="#e1dcd7" stroke-width="1" stroke-linecap="round"/><path d="M222.47178,152.34257h-15.55786" fill="none" stroke="#e1dcd7" stroke-width="1" stroke-linecap="round"/><path d="M195.11729,176.19225l-4.70155,-0.08548" fill="none" stroke="#e1dcd7" stroke-width="1" stroke-linecap="round"/><path d="M181.18362,152.85547l4.53058,0.68386" fill="none" stroke="#e1dcd7" stroke-width="1" stroke-linecap="round"/><path d="M258.80192,152.34257l-15.13044,-0.08548" fill="none" stroke="#e1dcd7" stroke-width="1" stroke-linecap="round"/><path d="M270.63277,156.65092l-2.90641,-0.16667" fill="none" stroke="#e1dcd7" stroke-width="1" stroke-linecap="round"/><path d="M280.1726,167.98591l3.93221,0.17097" fill="none" stroke="#e1dcd7" stroke-width="1" stroke-linecap="round"/><path d="M271.45338,172.08908l6.24024,0.08548" fill="none" stroke="#e1dcd7" stroke-width="1" stroke-linecap="round"/><path d="M291.37086,174.91001l-4.4451,-0.08548" fill="none" stroke="#e1dcd7" stroke-width="1" stroke-linecap="round"/><path d="M270.08564,184.77474l9.48858,0.17097" fill="none" stroke="#e1dcd7" stroke-width="1" stroke-linecap="round"/><path d="M286.92575,185.08246h3.67576" fill="none" stroke="#e1dcd7" stroke-width="1" stroke-linecap="round"/><path d="M293.50791,184.99697h5.72734" fill="none" stroke="#e1dcd7" stroke-width="1" stroke-linecap="round"/><path d="M311.71575,184.97134l-5.04348,-0.05986" fill="none" stroke="#e1dcd7" stroke-width="1" stroke-linecap="round"/><path d="M314.70765,184.99697l4.27414,0.25645" fill="none" stroke="#e1dcd7" stroke-width="1" stroke-linecap="round"/><path d="M318.21242,171.83263h4.35962" fill="none" stroke="#e1dcd7" stroke-width="1" stroke-linecap="round"/><path d="M330.6929,175.33743l-5.12896,-0.59838" fill="none" stroke="#e1dcd7" stroke-width="1" stroke-linecap="round"/><path d="M338.30087,184.99697l-11.8821,-0.17097" fill="none" stroke="#e1dcd7" stroke-width="1" stroke-linecap="round"/><path d="M315.15225,158.41183l-2.70982,0.08119" fill="none" stroke="#e1dcd7" stroke-width="1" stroke-linecap="round"/><path d="M320.00756,156.01833l-3.41931,-0.08548" fill="none" stroke="#e1dcd7" stroke-width="1" stroke-linecap="round"/><path d="M324.7946,158.49732l-2.27811,-0.22222" fill="none" stroke="#e1dcd7" stroke-width="1" stroke-linecap="round"/><path d="M324.96558,151.40226l-5.12896,0.08548" fill="none" stroke="#e1dcd7" stroke-width="1" stroke-linecap="round"/><path d="M308.80932,151.48773l5.21445,-0.24785" fill="none" stroke="#e1dcd7" stroke-width="1" stroke-linecap="round"/><path d="M345.65238,184.99697h12.05307" fill="none" stroke="#e1dcd7" stroke-width="1" stroke-linecap="round"/><path d="M356.59419,168.32784h6.32572" fill="none" stroke="#e1dcd7" stroke-width="1" stroke-linecap="round"/><path d="M373.43428,168.24236l-7.09507,0.08548" fill="none" stroke="#e1dcd7" stroke-width="1" stroke-linecap="round"/><path d="M353.68776,152.51353l5.21445,0.17097" fill="none" stroke="#e1dcd7" stroke-width="1" stroke-linecap="round"/><path d="M361.46669,152.59902h7.35152" fill="none" stroke="#e1dcd7" stroke-width="1" stroke-linecap="round"/><path d="M376.85358,152.42805l6.49669,0.25645" fill="none" stroke="#e1dcd7" stroke-width="1" stroke-linecap="round"/><path d="M401.64357,152.34257l5.38541,0.25645" fill="none" stroke="#e1dcd7" stroke-width="1" stroke-linecap="round"/><path d="M399.67749,172.94391l-6.41121,-0.08548" fill="none" stroke="#e1dcd7" stroke-width="1" stroke-linecap="round"/><path d="M407.11447,185.16794l-12.395,-0.34193" fill="none" stroke="#e1dcd7" stroke-width="1" stroke-linecap="round"/><path d="M87.37445,151.96943l7.12356,0.09498" fill="none" stroke="#e1dcd7" stroke-width="1" stroke-linecap="round"/></g><g><path d="M113.64924,215.9601l5.57165,-21.97841l52.84561,0.00134l-0.42009,2.83574l2.7678,0.02122l0.59303,-2.85687l36.59922,0.00093l-0.42924,3.37614l3.12386,-0.0235l0.49037,-3.33194l12.62128,0.06969l-0.12188,2.94694l2.48131,0.04393l0.33614,-2.97432l6.98683,0.03934l0.73488,5.98188l3.28082,-0.13682l0.29039,-5.8596l7.41748,-0.02908l0.13128,21.8323l-7.86678,-0.04926l-0.41579,-5.04307l-2.73271,-0.01413l-0.52578,5.27543l-23.76507,-0.00768l0.38984,-2.75593l-3.94711,-0.22246l0.35331,-7.67381l-3.69857,0.01458l-0.72221,10.48946l-9.94489,0.00779l0.58229,-10.60416l-2.72921,-0.026l-1.11024,10.7725l-8.41293,-0.0014l0.14059,-5.17174l-3.48233,-0.1089l-0.86881,5.27978l-15.59201,-0.00279l0.31043,-6.26609l-1.58002,-0.01011l-1.06887,6.28463z" fill="#020303" stroke="none" stroke-width="0" stroke-linecap="butt"/><path d="M231.61222,214.57149v-8.72417h16.07599l0.06684,8.5905l-4.14347,0.06724l0.04425,-5.62805l-7.6323,0.11309l-0.19626,5.6304z" fill="#282729" stroke="none" stroke-width="0" stroke-linecap="butt"/><path d="M156.03035,214.39178l-1.19467,-2.29745l4.98086,-13.66214l10.04319,-2.51253l1.0512,0.8806l-0.01849,2.92681l1.77281,-0.66547l1.05608,0.94147l-1.81014,14.00621l-4.19548,-0.01159l-0.94142,-1.80371l1.21676,-4.75221l-6.7101,0.13177l-0.63121,6.67119z" fill="#282729" stroke="none" stroke-width="0" stroke-linecap="butt"/><path d="M216.81055,203.10264v-3.03875h11.81194v3.03875l-0.07167,2.27247l-3.35918,0.22715l-0.04901,-2.49962z" fill="#282729" stroke="none" stroke-width="0" stroke-linecap="butt"/><path d="M212.69352,211.97385l-0.24506,-2.89172h16.125v2.84271l-2.89172,0.19605l-0.25856,2.64652l-9.44585,0.04915l-0.39209,-2.89172z" fill="#282729" stroke="none" stroke-width="0" stroke-linecap="butt"/><path d="M199.7053,214.47347l-0.44111,-2.54864h4.26406l-0.68617,2.49962z" fill="#282729" stroke="none" stroke-width="0" stroke-linecap="butt"/><path d="M194.41198,203.00462l-0.34309,-3.13678h15.83093l-0.49012,3.28382z" fill="#282729" stroke="none" stroke-width="0" stroke-linecap="butt"/><path d="M174.61107,214.57149l-0.58815,-2.59764l3.54917,-13.90577l14.37592,-2.27788l0.42643,3.23589l-1.34827,15.63631l-4.05962,-0.09029l-0.76513,-2.50402l0.35704,-3.12982l-7.12293,-0.32286l-0.26633,6.15212z" fill="#282729" stroke="none" stroke-width="0" stroke-linecap="butt"/><path d="M137.06774,214.66951l-1.47037,-2.79369l4.87933,-14.28786l13.75582,-1.45259l1.20847,2.94317l-0.68745,4.075l-11.52126,-0.27819l-0.96904,5.66845l9.94926,-0.93204l1.39206,2.84576l-0.65688,4.21199z" fill="#282729" stroke="none" stroke-width="0" stroke-linecap="butt"/><path d="M118.24094,214.69402l-2.05851,-2.79369l3.69462,-3.08615l-1.97317,-3.34174l3.37661,-7.03234l14.27401,-3.04852l1.42328,3.5726l-2.89365,15.77884z" fill="#282729" stroke="none" stroke-width="0" stroke-linecap="butt"/><path d="M254.04494,216.54163l-0.06684,-22.20029h34.87661c0,0 0.03014,1.4302 0.05721,2.71482c0.00806,0.38261 1.877,0.08034 1.877,0.08034l0.74677,-2.40798l44.24536,-0.34447l0.4046,2.62631l1.69482,0.05634l1.50633,-2.5485l12.06174,0.05911l0.45273,2.4498l1.72165,0.18476l1.24495,-2.63376l7.00572,0.01312l0.71209,2.79618l2.81697,-0.11895l1.49787,-2.73753l6.29313,0.05064l3.9461,17.29333l-2.86709,4.68641l-6.19408,0.01531l-0.1878,-3.32101l-3.67796,-0.02962l-1.3943,3.01355l-6.58735,0.43426l-0.35032,-3.29536l-1.8426,0.02137l-1.0838,3.08524l-12.5055,0.03365l-0.55895,-3.22539l-2.163,-0.04562l-0.71305,3.1877l-12.83206,0.02994l-0.70992,-6.21367l1.04699,-2.43503l0.32147,-3.38108l-6.3503,0.02653l0.92535,8.02496l-1.61742,3.90985l-6.64617,0.08022l-1.57062,-11.75387l-5.66259,-0.10975l0.09658,1.39463l1.68856,-0.0574l0.8113,6.45281l-1.34838,4.20144l-13.14118,0.01079l-0.26828,-3.45181l-2.50317,0.13008l0.06844,3.24761z" fill="#020303" stroke="none" stroke-width="0" stroke-linecap="butt"/><path d="M357.65964,214.60839l-3.17047,-15.89832l1.88904,-2.62242l11.20381,8.75738l-1.24745,-5.98453l1.69538,-2.83463l7.31295,15.96741l-1.72969,2.71917l-4.11374,-0.23521l-0.6477,-2.63212l-3.05703,-0.05902l-0.38843,-3.01459l-2.84392,-0.05112l0.56517,3.31488l-1.56226,2.57314z" fill="#282729" stroke="none" stroke-width="0" stroke-linecap="butt"/><path d="M342.12891,203.30496l-3.23499,-2.95828l1.44299,-4.53139l10.56825,3.35427l0.67113,8.65848l-2.21474,0.54202l-0.75384,-5.20295z" fill="#282729" stroke="none" stroke-width="0" stroke-linecap="butt"/><path d="M341.94511,214.56245l-0.68923,-2.66504l-2.97001,-0.31245l-1.68696,-10.28523l1.22078,-2.56468l4.85434,9.58736l9.36873,0.31573l3.42912,0.36861l-1.49491,2.90746l-0.95816,-0.01681l-1.65416,2.66504z" fill="#282729" stroke="none" stroke-width="0" stroke-linecap="butt"/><path d="M325.44945,214.65434l-0.36759,-4.3192l0.88151,-2.22345l10.88141,3.78571l-1.33252,2.75693z" fill="#282729" stroke="none" stroke-width="0" stroke-linecap="butt"/><path d="M324.30073,203.12117l-0.39217,-4.59435l0.57596,-2.71152l10.33851,4.3192l-1.08833,3.01285l-2.07091,0.29837l-1.86694,4.31123l-1.96056,0.84425l-0.91647,-5.29623z" fill="#282729" stroke="none" stroke-width="0" stroke-linecap="butt"/><path d="M305.69142,203.12117l-0.68923,-3.85971l0.68923,-3.49212l16.67945,4.45704l-1.17716,3.0254l-4.75025,0.14507l1.04045,8.7452l-0.9391,2.54741l-3.72622,-0.17326l-1.52141,-11.2572z" fill="#282729" stroke="none" stroke-width="0" stroke-linecap="butt"/><path d="M299.48832,203.44281v-3.99756l3.81376,0.41354l-0.68923,3.58402z" fill="#282729" stroke="none" stroke-width="0" stroke-linecap="butt"/><path d="M292.73383,203.07522v-7.25993l4.3192,4.50299l0.1838,2.75693l0.63506,5.16287l-1.73783,0.39695l-0.32164,-5.55982z" fill="#282729" stroke="none" stroke-width="0" stroke-linecap="butt"/><path d="M293.85301,214.69373l-0.49689,-3.25643l0.44437,-3.6753l11.02774,4.09602l-0.99775,2.8357z" fill="#282729" stroke="none" stroke-width="0" stroke-linecap="butt"/><path d="M287.7615,212.12059v-3.41335l3.30832,-0.10503l-0.73518,3.51837z" fill="#282729" stroke="none" stroke-width="0" stroke-linecap="butt"/><path d="M278.15162,203.19337v-3.46586h8.61214v3.46586z" fill="#282729" stroke="none" stroke-width="0" stroke-linecap="butt"/><path d="M275.05334,214.53619l0.05251,-2.31058l13.33831,-0.05251l-0.57764,2.31058z" fill="#282729" stroke="none" stroke-width="0" stroke-linecap="butt"/><path d="M259.84644,208.37904v-2.6344h6.18779l-0.47262,2.6344z" fill="#282729" stroke="none" stroke-width="0" stroke-linecap="butt"/><path d="M259.72391,203.41656v-3.12453l12.17427,-0.31508l-0.63015,3.22955z" fill="#282729" stroke="none" stroke-width="0" stroke-linecap="butt"/><path d="M255.26468,212.0637v-16.29655h16.9092l-0.36759,4.28856l-12.07091,0.12564l0.0334,1.71576l6.15421,-0.0062l0.05693,3.81626l-6.11929,-0.01092l0.0423,1.86275l11.98498,0.14215l0.28598,4.36252z" fill="#a9a09d" stroke="none" stroke-width="0" stroke-linecap="butt"/><path d="M275.04459,212.20374l-0.44523,-16.40157l12.7683,0.1098l-0.85772,4.26629l-7.68531,0.2373l0.18471,7.40439l7.82586,-0.09533l1.63524,4.58415z" fill="#a9a09d" stroke="none" stroke-width="0" stroke-linecap="butt"/><path d="M293.98429,212.0637l-0.23287,-4.18871l3.20876,-0.11549l-0.69953,-7.52668l-3.12718,0.01004l-0.37447,-4.43486h10.50171l0.12517,4.13256l-2.91923,0.0547l0.60716,7.73413l3.14587,-0.0303l0.41894,4.31794z" fill="#a9a09d" stroke="none" stroke-width="0" stroke-linecap="butt"/><path d="M306.40071,200.38246l-0.6535,-4.61531h15.72474l0.81687,4.45194l-6.10318,0.08169l1.3659,11.82812l-3.97989,-0.0652l-1.38868,-11.76292z" fill="#a9a09d" stroke="none" stroke-width="0" stroke-linecap="butt"/><path d="M326.57739,212.30876l-0.66822,-4.44628l2.93156,-0.05879l-0.65804,-7.54797l-3.26754,-0.15398l-0.37994,-4.29375l9.84575,-0.08663l0.37025,4.42053l-2.62784,0.12054l1.21879,7.50559l2.97432,0.18475l0.63515,4.11092z" fill="#a9a09d" stroke="none" stroke-width="0" stroke-linecap="butt"/><path d="M340.79092,200.23952l-0.24506,-4.34983h9.92496l0.73518,4.2273z" fill="#a9a09d" stroke="none" stroke-width="0" stroke-linecap="butt"/><path d="M359.10922,212.12496l-3.00199,-16.11275l3.85971,-0.1838l0.59395,3.03827l2.89078,0.22351l0.64097,4.14804l-2.71097,-0.05043l1.77107,8.93716z" fill="#a9a09d" stroke="none" stroke-width="0" stroke-linecap="butt"/><path d="M286.87753,208.75538l-0.85772,-9.80243l1.34227,-2.87389l0.25063,2.87389l2.60178,-0.02387l0.82907,9.9971l-2.68918,0.01753l0.08452,3.25814z" fill="#a9a09d" stroke="none" stroke-width="0" stroke-linecap="butt"/><path d="M339.30218,209.07395l-1.47037,-10.35382l4.47236,0.24506l0.91898,10.10876z" fill="#a9a09d" stroke="none" stroke-width="0" stroke-linecap="butt"/><path d="M351.37143,209.07395l-1.5929,-10.41509l3.79845,0.06126l2.02175,10.29256z" fill="#a9a09d" stroke="none" stroke-width="0" stroke-linecap="butt"/><path d="M342.54924,212.07596l-0.61265,-4.47236h10.78268l0.30633,4.53363z" fill="#a9a09d" stroke="none" stroke-width="0" stroke-linecap="butt"/><path d="M364.12481,205.73866l-0.94681,-3.95935l3.70688,0.125l1.11265,4.00019z" fill="#a9a09d" stroke="none" stroke-width="0" stroke-linecap="butt"/><path d="M367.58909,209.04945l-0.73518,-4.4111l3.1041,-0.12253l1.14362,4.65615z" fill="#a9a09d" stroke="none" stroke-width="0" stroke-linecap="butt"/><path d="M370.89741,212.07187l-2.89988,-16.17402h3.83929l3.63507,16.17402z" fill="#a9a09d" stroke="none" stroke-width="0" stroke-linecap="butt"/><path d="M255.77669,214.65434l-0.52513,-2.59939h16.9092l-0.47262,2.70442z" fill="#282729" stroke="none" stroke-width="0" stroke-linecap="butt"/><path d="M119.01682,199.93319l1.02089,-4.82921l15.67193,0.2101l-0.95365,4.69263z" fill="#a9a09d" stroke="none" stroke-width="0" stroke-linecap="butt"/><path d="M117.75491,205.47157l0.85771,-3.43085l15.8677,-0.06126l-1.26207,3.67591z" fill="#a9a09d" stroke="none" stroke-width="0" stroke-linecap="butt"/><path d="M115.97822,212.02694l1.27431,-4.2518l14.18902,-0.04901l1.01701,4.17829z" fill="#a9a09d" stroke="none" stroke-width="0" stroke-linecap="butt"/><path d="M117.80392,205.56347l2.26444,-10.49012l2.63678,4.11854l-0.58815,3.47986z" fill="#a9a09d" stroke="none" stroke-width="0" stroke-linecap="butt"/><path d="M128.97869,210.1216l0.83321,-5.48937l4.60714,-2.49962l-1.96048,9.75342z" fill="#a9a09d" stroke="none" stroke-width="0" stroke-linecap="butt"/><path d="M135.5647,211.91666l2.94073,-15.95346l15.73289,0.01073l-0.60753,4.1169l-11.76652,-0.15449l-1.64717,7.76537l12.03623,-0.0491l-0.51463,4.26406z" fill="#a9a09d" stroke="none" stroke-width="0" stroke-linecap="butt"/><path d="M154.82649,212.19566l2.32638,-16.39098l12.67583,0.06942l-0.22675,4.04834l-8.99439,0.11807l-0.19046,2.20203l8.97154,-0.21639l-0.30762,3.93992l-9.04283,0.04287l-0.62528,5.9775z" fill="#a9a09d" stroke="none" stroke-width="0" stroke-linecap="butt"/><path d="M166.69686,212.17869l0.76911,-7.20479h4.44502l-0.91049,7.20479z" fill="#a9a09d" stroke="none" stroke-width="0" stroke-linecap="butt"/><path d="M168.04281,203.05112l0.1131,-4.2075l4.52986,0.13007l-0.63339,4.06047z" fill="#a9a09d" stroke="none" stroke-width="0" stroke-linecap="butt"/><path d="M173.99637,212.00244l1.71543,-16.11275h16.23528l-1.53204,16.06679l-4.45941,-0.03467l1.19887,-11.98956l-8.01945,-0.128l-0.19967,2.1485l9.07583,0.0008l-0.6466,3.83024l-8.78696,0.0182l-0.41523,6.20044z" fill="#a9a09d" stroke="none" stroke-width="0" stroke-linecap="butt"/><path d="M194.03289,200.06612l0.24506,-4.25069l15.90668,-0.06684l-0.33418,4.40219z" fill="#a9a09d" stroke="none" stroke-width="0" stroke-linecap="butt"/><path d="M199.33957,212.06518l0.63716,-14.01748l4.31307,0.04901l-0.68617,13.96847z" fill="#a9a09d" stroke="none" stroke-width="0" stroke-linecap="butt"/><path d="M212.42582,209.07545l0.53913,-10.24354l4.26406,-0.00817l-0.14704,10.2027z" fill="#a9a09d" stroke="none" stroke-width="0" stroke-linecap="butt"/><path d="M215.80766,200.40029v-4.65616h10.39058v4.65616z" fill="#a9a09d" stroke="none" stroke-width="0" stroke-linecap="butt"/><path d="M215.41556,212.06518v-4.4111h10.24355v4.4111z" fill="#a9a09d" stroke="none" stroke-width="0" stroke-linecap="butt"/><path d="M224.72788,209.02643v-4.31307h3.87196v4.31307z" fill="#a9a09d" stroke="none" stroke-width="0" stroke-linecap="butt"/><path d="M224.72788,203.04695v-4.31307h4.06801v4.31307z" fill="#a9a09d" stroke="none" stroke-width="0" stroke-linecap="butt"/><path d="M231.63859,212.06518v-16.125h4.26406v16.12501z" fill="#a9a09d" stroke="none" stroke-width="0" stroke-linecap="butt"/><path d="M234.82438,205.84064v-3.92098h12.59613v3.92098z" fill="#a9a09d" stroke="none" stroke-width="0" stroke-linecap="butt"/><path d="M243.59756,212.06518v-16.17402h4.11702v16.17402z" fill="#a9a09d" stroke="none" stroke-width="0" stroke-linecap="butt"/><path d="M285.7859,199.96661l-6.81715,-0.04083" fill="none" stroke="#e1dcd7" stroke-width="1" stroke-linecap="round"/><path d="M288.12511,212.0637l-12.63177,-0.2005" fill="none" stroke="#e1dcd7" stroke-width="1" stroke-linecap="round"/><path d="M290.598,208.65513h-1.73771" fill="none" stroke="#e1dcd7" stroke-width="1" stroke-linecap="round"/><path d="M294.20707,211.8632h10.02521" fill="none" stroke="#e1dcd7" stroke-width="1" stroke-linecap="round"/><path d="M303.0961,199.69927h-2.47289" fill="none" stroke="#e1dcd7" stroke-width="1" stroke-linecap="round"/><path d="M316.46306,200.03344l5.41362,-0.06684" fill="none" stroke="#e1dcd7" stroke-width="1" stroke-linecap="round"/><path d="M317.1314,211.66269h-3.47541" fill="none" stroke="#e1dcd7" stroke-width="1" stroke-linecap="round"/><path d="M326.68878,212.0637l9.82472,-0.26734" fill="none" stroke="#e1dcd7" stroke-width="1" stroke-linecap="round"/><path d="M332.30289,200.03344l2.13871,-0.13367" fill="none" stroke="#e1dcd7" stroke-width="1" stroke-linecap="round"/><path d="M355.42773,208.72196l-2.33921,0.13367" fill="none" stroke="#e1dcd7" stroke-width="1" stroke-linecap="round"/><path d="M349.67994,199.89977h-3.47541" fill="none" stroke="#e1dcd7" stroke-width="1" stroke-linecap="round"/><path d="M352.68751,211.8632l-7.55233,-0.13367" fill="none" stroke="#e1dcd7" stroke-width="1" stroke-linecap="round"/><path d="M367.859,208.7888h1.93821" fill="none" stroke="#e1dcd7" stroke-width="1" stroke-linecap="round"/><path d="M362.77956,211.8632l-3.40857,-0.06684" fill="none" stroke="#e1dcd7" stroke-width="1" stroke-linecap="round"/><path d="M375.01033,211.72952l-3.87642,0.06684" fill="none" stroke="#e1dcd7" stroke-width="1" stroke-linecap="round"/><path d="M271.81743,211.79636l-14.23581,-0.13367" fill="none" stroke="#e1dcd7" stroke-width="1" stroke-linecap="round"/><path d="M271.55008,199.69927l-5.41362,-0.13367" fill="none" stroke="#e1dcd7" stroke-width="1" stroke-linecap="round"/><path d="M265.40128,205.38022h-3.20807" fill="none" stroke="#e1dcd7" stroke-width="1" stroke-linecap="round"/><path d="M241.27393,205.58073h-3.2749" fill="none" stroke="#e1dcd7" stroke-width="1" stroke-linecap="round"/><path d="M247.15539,211.66269h-2.67339" fill="none" stroke="#e1dcd7" stroke-width="1" stroke-linecap="round"/><path d="M235.45931,211.59586h-2.94073" fill="none" stroke="#e1dcd7" stroke-width="1" stroke-linecap="round"/><path d="M217.54758,211.66269l7.55233,0.06684" fill="none" stroke="#e1dcd7" stroke-width="1" stroke-linecap="round"/><path d="M226.10244,208.65513h2.00505" fill="none" stroke="#e1dcd7" stroke-width="1" stroke-linecap="round"/><path d="M225.50092,202.57316l2.60656,0.06684" fill="none" stroke="#e1dcd7" stroke-width="1" stroke-linecap="round"/><path d="M223.56271,200.10028h-4.94578" fill="none" stroke="#e1dcd7" stroke-width="1" stroke-linecap="round"/><path d="M209.39374,199.83293h-4.87894" fill="none" stroke="#e1dcd7" stroke-width="1" stroke-linecap="round"/><path d="M203.24494,211.59586h-2.74022" fill="none" stroke="#e1dcd7" stroke-width="1" stroke-linecap="round"/><path d="M186.00157,205.51389l-5.27995,-0.06684" fill="none" stroke="#e1dcd7" stroke-width="1" stroke-linecap="round"/><path d="M179.31809,199.43193l4.87894,-0.06683" fill="none" stroke="#e1dcd7" stroke-width="1" stroke-linecap="round"/><path d="M187.6056,211.52902h2.00504" fill="none" stroke="#e1dcd7" stroke-width="1" stroke-linecap="round"/><path d="M167.02049,205.78123h-4.14376" fill="none" stroke="#e1dcd7" stroke-width="1" stroke-linecap="round"/><path d="M168.29035,211.66269l2.60656,0.06684" fill="none" stroke="#e1dcd7" stroke-width="1" stroke-linecap="round"/><path d="M171.76576,202.8405l-2.40605,-0.06684" fill="none" stroke="#e1dcd7" stroke-width="1" stroke-linecap="round"/><path d="M142.95997,199.63243l7.35183,0.06684" fill="none" stroke="#e1dcd7" stroke-width="1" stroke-linecap="round"/><path d="M151.04698,211.59586h-4.94577" fill="none" stroke="#e1dcd7" stroke-width="1" stroke-linecap="round"/><path d="M117.09491,211.59586h5.34678" fill="none" stroke="#e1dcd7" stroke-width="1" stroke-linecap="round"/><path d="M126.58545,211.59586h4.87894" fill="none" stroke="#e1dcd7" stroke-width="1" stroke-linecap="round"/><path d="M124.78091,199.56559l5.74779,0.06684" fill="none" stroke="#e1dcd7" stroke-width="1" stroke-linecap="round"/><path d="M119.63463,204.97921l6.21563,0.13367" fill="none" stroke="#e1dcd7" stroke-width="1" stroke-linecap="round"/></g></g></g></svg>