<svg version="1.1" xmlns="http://www.w3.org/2000/svg" xmlns:xlink="http://www.w3.org/1999/xlink" width="33" height="33" viewBox="0,0,33,33"><defs><linearGradient x1="238.26953" y1="189.661" x2="241.65794" y2="189.66369" gradientUnits="userSpaceOnUse" id="color-1"><stop offset="0" stop-color="#ffffff"/><stop offset="1" stop-color="#ffffff"/></linearGradient><linearGradient x1="238.32822" y1="166.7723" x2="241.71662" y2="166.775" gradientUnits="userSpaceOnUse" id="color-2"><stop offset="0" stop-color="#ffffff"/><stop offset="1" stop-color="#ffffff"/></linearGradient><linearGradient x1="226.51624" y1="177.92399" x2="229.90186" y2="177.92399" gradientUnits="userSpaceOnUse" id="color-3"><stop offset="0" stop-color="#ffffff"/><stop offset="1" stop-color="#ffffff"/></linearGradient><linearGradient x1="250.09535" y1="178.29" x2="253.48376" y2="178.29271" gradientUnits="userSpaceOnUse" id="color-4"><stop offset="0" stop-color="#ffffff"/><stop offset="1" stop-color="#ffffff"/></linearGradient><linearGradient x1="229.09559" y1="171.60697" x2="231.52373" y2="169.23984" gradientUnits="userSpaceOnUse" id="color-5"><stop offset="0" stop-color="#ffffff"/><stop offset="1" stop-color="#ffffff"/></linearGradient><linearGradient x1="245.82194" y1="187.95186" x2="248.25008" y2="185.58473" gradientUnits="userSpaceOnUse" id="color-6"><stop offset="0" stop-color="#ffffff"/><stop offset="1" stop-color="#ffffff"/></linearGradient><linearGradient x1="251.00319" y1="171.57699" x2="248.57901" y2="169.21355" gradientUnits="userSpaceOnUse" id="color-7"><stop offset="0" stop-color="#ffffff"/><stop offset="1" stop-color="#ffffff"/></linearGradient><linearGradient x1="233.86735" y1="188.00969" x2="231.44306" y2="185.64637" gradientUnits="userSpaceOnUse" id="color-8"><stop offset="0" stop-color="#ffffff"/><stop offset="1" stop-color="#ffffff"/></linearGradient></defs><g transform="translate(-223.5,-163.5)"><g data-paper-data="{&quot;isPaintingLayer&quot;:true}" fill-rule="nonzero" stroke-miterlimit="10" stroke-dasharray="" stroke-dashoffset="0" style="mix-blend-mode: normal"><path d="M240.01444,171.89323c2.3294,0 4.4403,0.91975 5.96858,2.40599c1.52864,1.48586 2.47468,3.53815 2.47468,5.8029c0,2.26472 -0.94604,4.31704 -2.47468,5.8029c-1.52829,1.48621 -3.63919,2.40599 -5.96858,2.40599c-2.3294,0 -4.44032,-0.91978 -5.96858,-2.40599c-1.52867,-1.48586 -2.47468,-3.53818 -2.47468,-5.8029c0,-2.26475 0.94601,-4.31704 2.47468,-5.8029c1.52826,-1.48624 3.63919,-2.40599 5.96858,-2.40599z" fill="none" stroke="#ffffff" stroke-width="6.5" stroke-linecap="butt" stroke-linejoin="miter"/><path d="M238.26953,189.661l3.38841,-0.0027l-0.00285,3.56941l-3.38841,0.00269z" fill="url(#color-1)" stroke="#ffffff" stroke-width="3.5" stroke-linecap="round" stroke-linejoin="round"/><path d="M238.32822,166.7723l3.38841,-0.00269l-0.00285,3.56941l-3.38841,0.0027z" fill="url(#color-2)" stroke="#ffffff" stroke-width="3.5" stroke-linecap="round" stroke-linejoin="round"/><path d="M226.51624,177.92399h3.38562v3.56667h-3.38562z" fill="url(#color-3)" stroke="#ffffff" stroke-width="3.5" stroke-linecap="round" stroke-linejoin="round"/><path d="M250.09535,178.29l3.3884,-0.00269l-0.00284,3.5694l-3.38841,0.0027z" fill="url(#color-4)" stroke="#ffffff" stroke-width="3.5" stroke-linecap="round" stroke-linejoin="round"/><path d="M229.09559,171.60697l2.42814,-2.36713l2.4897,2.55392l-2.42817,2.3671z" fill="url(#color-5)" stroke="#ffffff" stroke-width="3.5" stroke-linecap="round" stroke-linejoin="round"/><path d="M245.82194,187.95186l2.42814,-2.36713l2.4897,2.55391l-2.42816,2.36711z" fill="url(#color-6)" stroke="#ffffff" stroke-width="3.5" stroke-linecap="round" stroke-linejoin="round"/><path d="M248.50944,174.13486l-2.42438,-2.36325l2.49375,-2.55787l2.42438,2.36325z" fill="url(#color-7)" stroke="#ffffff" stroke-width="3.5" stroke-linecap="round" stroke-linejoin="round"/><path d="M231.37765,190.5636l-2.42429,-2.36334l2.4897,-2.55388l2.42429,2.36332z" fill="url(#color-8)" stroke="#ffffff" stroke-width="3.5" stroke-linecap="round" stroke-linejoin="round"/><path d="M223.5,180c0,-9.1127 7.3873,-16.5 16.5,-16.5c9.1127,0 16.5,7.3873 16.5,16.5c0,9.1127 -7.3873,16.5 -16.5,16.5c-9.1127,0 -16.5,-7.3873 -16.5,-16.5z" fill="none" stroke="none" stroke-width="0" stroke-linecap="butt" stroke-linejoin="miter"/></g></g></svg>